<svg viewBox="0 0 545.42 133.69" xmlns="http://www.w3.org/2000/svg"><g fill="#1d1d1b"><path d="m31.78 121.68c3.64 0 7.68-1.44 12.09-4.32a96.83 96.83 0 0 0 12.89-10.15 146.66 146.66 0 0 0 11.47-11.92q5.2-6.09 7.86-9.8a6.59 6.59 0 0 1 3-2.73 1.79 1.79 0 0 1 2.12.44 3.79 3.79 0 0 1 .53 2.73 9.93 9.93 0 0 1 -1.59 4.15q-1.25 2.13-4.15 6.09t-6.89 8.65q-4 4.68-9 9.54a97.15 97.15 0 0 1 -10.5 8.82 61.34 61.34 0 0 1 -11.3 6.54 28.52 28.52 0 0 1 -11.48 2.56q-7.77 0-13-2.92a23.81 23.81 0 0 1 -8.3-7.5 29.33 29.33 0 0 1 -4.32-10.15 50.35 50.35 0 0 1 -1.24-11 48.38 48.38 0 0 1 2.47-13.6 61.79 61.79 0 0 1 7.36-15.65 48 48 0 0 1 12.27-12.89 28.93 28.93 0 0 1 17.47-5.38 13.27 13.27 0 0 1 9.63 3.88q3.96 3.93 3.83 10.59a19.11 19.11 0 0 1 -1.06 6.27 20 20 0 0 1 -2.82 5.47 14.09 14.09 0 0 1 -4.15 3.8 10.06 10.06 0 0 1 -5.21 1.41 3.88 3.88 0 0 1 -3.44-1.68 8.39 8.39 0 0 1 -1.41-3.88 17.43 17.43 0 0 1 0-4.33 10.24 10.24 0 0 1 .61-2.82 5.55 5.55 0 0 1 2-1.77l2.38-1.23a3.93 3.93 0 0 0 1.67-1.59 4.4 4.4 0 0 0 .62-2.31 3.28 3.28 0 0 0 -.7-2.12 2.79 2.79 0 0 0 -2.3-.89c-1.06 0-3 .86-5.74 2.56a37.77 37.77 0 0 0 -8.45 7.61 50.44 50.44 0 0 0 -7.7 12.63 45.29 45.29 0 0 0 -3.53 17.65 20.64 20.64 0 0 0 1.59 9.56 15.61 15.61 0 0 0 10.24 8.8 22.94 22.94 0 0 0 6.18.88z"/><path d="m89.33 130.51a24.54 24.54 0 0 1 -11-2.12 18.22 18.22 0 0 1 -10-11.91 25.65 25.65 0 0 1 -1-6.62 75.82 75.82 0 0 1 .88-11.21q.89-5.93 2.12-11c.82-3.35 1.56-6.21 2.21-8.56s1.08-3.83 1.32-4.42a33.65 33.65 0 0 1 4.15-8.91 12.9 12.9 0 0 1 7.15-5.21c1.17-.23 2.41-.47 3.7-.7a29.06 29.06 0 0 1 3.27-.18 8.79 8.79 0 0 1 3.09.53q-4.77 12.18-7.5 20.3t-4.04 13.29a59.48 59.48 0 0 0 -1.94 9.36c-.59 5.29-.12 9.3 1.41 12s4.65 4.06 9.36 4.06a13.86 13.86 0 0 0 8.82-3.44 37.74 37.74 0 0 0 7.77-8.92 31.74 31.74 0 0 1 -.53-5.82 61.74 61.74 0 0 1 1-11q1-5.39 2.3-10.07a81.85 81.85 0 0 1 2.82-8.38c1-2.47 1.85-4.42 2.56-5.83q1.94-4.23 3.53-5.21a11.35 11.35 0 0 1 5.12-1.14 11.15 11.15 0 0 1 2.38-.09 12.46 12.46 0 0 1 1.68.26c1.41.36 2.12 1.06 2.12 2.12 0 1.88-.12 4.71-.35 8.47a53.71 53.71 0 0 1 -2.12 11.66c-.83 3.29-1.62 6.09-2.39 8.38s-1.5 4.24-2.2 5.83a22.91 22.91 0 0 1 -2.12 3.88c-.71 1-1.35 1.92-1.94 2.74.23 3.53.53 6.35.88 8.47a19.12 19.12 0 0 0 1.32 4.86 4.77 4.77 0 0 0 2 2.29 5.19 5.19 0 0 0 2.56.62c1.64 0 3.59-.8 5.82-2.38a55.21 55.21 0 0 0 7-6q3.62-3.61 7.23-7.94t6.62-8.21c2-2.59 3.71-4.85 5.12-6.8l2.65-3.62a5.34 5.34 0 0 1 2.28-1.94 1.86 1.86 0 0 1 1.86.27 2.71 2.71 0 0 1 .79 1.94 5.3 5.3 0 0 1 -.79 2.91 137.67 137.67 0 0 1 -8.74 14.21 124.19 124.19 0 0 1 -11.12 13.86 77.47 77.47 0 0 1 -11.92 10.59q-6 4.24-11.3 4.24a9.26 9.26 0 0 1 -7.5-3.27 27.53 27.53 0 0 1 -4.68-9.44 31.07 31.07 0 0 1 -9.53 9.8 22.46 22.46 0 0 1 -12.18 3.4z"/><path d="m192.6 26.53q-2.6 10.59-5.91 20.21t-6.71 18q-3.43 8.4-6.88 15.26t-6.1 12q-1.75 12.7 0 20.47t6.89 7.77q4.23 0 8.3-3.88a40.54 40.54 0 0 0 7.23-9.54 71.93 71.93 0 0 0 5.39-12.09 53.54 53.54 0 0 0 2.74-11.56 12.57 12.57 0 0 1 -5.65-3.09 7.82 7.82 0 0 1 -2.3-5.91 8.54 8.54 0 0 1 1.4-4.65 15.94 15.94 0 0 1 3.36-3.8 15.28 15.28 0 0 1 4.23-2.47 11.83 11.83 0 0 1 4.24-.88q3 0 5.12 3.79a26.41 26.41 0 0 1 2.83 9.62 68 68 0 0 0 14.82-2.11 93.81 93.81 0 0 0 14.66-5 4.78 4.78 0 0 1 3.18-.53 2.42 2.42 0 0 1 1.67 1.41 3.08 3.08 0 0 1 -.11 2.45 3.8 3.8 0 0 1 -2.11 2 87.16 87.16 0 0 1 -8.39 4.15 78.37 78.37 0 0 1 -8.5 3.11 82.27 82.27 0 0 1 -8.12 1.94 39.87 39.87 0 0 1 -7.06.7 49.82 49.82 0 0 1 -4.42 15.28 78.3 78.3 0 0 1 -9 15.18 54.58 54.58 0 0 1 -11.74 11.56q-6.45 4.59-12.62 4.59a33 33 0 0 1 -5.12-.53 11.19 11.19 0 0 1 -6.18-3.71q-3-3.17-5.12-10.15t-1.77-19.86a116.24 116.24 0 0 1 2-18.36q1.75-9.7 4.23-19.42t5.56-18.8q3.09-9.09 5.92-16.42t5.13-12.26a33.43 33.43 0 0 1 3.61-6.35 10.32 10.32 0 0 1 3.7-2.92 20.61 20.61 0 0 1 4.16-1.42 12.22 12.22 0 0 1 3.84-.26 7.8 7.8 0 0 1 2.47.53c.7.47.91 3.06.61 7.77a95.68 95.68 0 0 1 -3.48 18.18z"/><path d="m307.17 91a134.47 134.47 0 0 1 -12 15.09 108.5 108.5 0 0 1 -14.17 13.03 77.34 77.34 0 0 1 -15.36 9.27 37 37 0 0 1 -15.27 3.53 22.09 22.09 0 0 1 -8.39-1.85 23.94 23.94 0 0 1 -8.2-5.74 27.82 27.82 0 0 1 -5.92-10.06q-2.2-6.18-1.32-15a46.55 46.55 0 0 1 4.46-15.27 69.76 69.76 0 0 1 9.36-14.74 53 53 0 0 1 12.53-11.12 26.05 26.05 0 0 1 14-4.41q6.72 0 9.71 3.35a10.75 10.75 0 0 1 2.65 8.3 25.33 25.33 0 0 1 -3.09 10.06 40.62 40.62 0 0 1 -6.09 8.3 61.44 61.44 0 0 1 -7.5 6.71q-4 3-7.5 5.47l-7.42 5q-3.52 2.39-6.18 4.33a19.25 19.25 0 0 0 1.59 7.41 14.67 14.67 0 0 0 3.53 4.86 12.73 12.73 0 0 0 4.86 2.64 19.78 19.78 0 0 0 5.56.8 25 25 0 0 0 12.53-3.8 85.73 85.73 0 0 0 12.8-9.18 139.45 139.45 0 0 0 11.66-11.19q5.39-5.82 8.92-10.06a4.77 4.77 0 0 1 2.56-1.68 2.21 2.21 0 0 1 2.91 2.47 6.64 6.64 0 0 1 -1.22 3.48zm-45.17-27.22a9.11 9.11 0 0 0 -5 2.12 26.12 26.12 0 0 0 -5.79 6.1 52.51 52.51 0 0 0 -5.29 9.71 56.51 56.51 0 0 0 -3.71 13.15q2.11-1.59 4.59-3.27c1.65-1.11 3.29-2.32 4.94-3.61q7.59-5.84 10.59-10.24c2-2.94 3.12-5.48 3.36-7.6s0-3.85-.71-4.85a3.45 3.45 0 0 0 -2.98-1.51z"/><path d="m376.73 119.57a53.25 53.25 0 0 1 .79-8.48c.53-3.18 1.21-6.44 2-9.8s1.65-6.62 2.48-9.79 1.52-6 2.11-8.48q1.07-4.59-.17-7.06a4.36 4.36 0 0 0 -4.24-2.47c-.94 0-2.8.82-5.56 2.47s-5.77 4.5-9 8.56a78.66 78.66 0 0 0 -9.54 16.42q-4.68 10.34-7.32 26.22a22.13 22.13 0 0 1 -6.36 2.29c-1.06.24-2 .41-2.82.53q-3.54.18-4.59-1.15t.35-6.44c.47-1.65 1.32-4.29 2.56-7.94s2.44-7.62 3.62-11.92 2.21-8.59 3.09-12.89a56.85 56.85 0 0 0 1.32-11.21q0-3.34-1.14-4.59a4.27 4.27 0 0 0 -3.27-1.23c-1.06 0-2.82.59-5.3 1.76s-5.23 3.47-8.29 6.89a64.17 64.17 0 0 0 -9.1 14.21q-4.5 9.09-7.67 23.57v-.36c-.24.95-.48 1.89-.71 2.83a15.93 15.93 0 0 0 -.53 2.65 18.4 18.4 0 0 1 -.53 2.64l-8.83 3.89a9.72 9.72 0 0 1 -2.2.53 4.07 4.07 0 0 1 -2.48-.44 3.9 3.9 0 0 1 -1.67-2.56 12.84 12.84 0 0 1 .35-5.83l11.12-46.08c.36-1.52.65-3 .89-4.41a29.93 29.93 0 0 0 .44-3.8 9.79 9.79 0 0 0 -.27-3.08 39.85 39.85 0 0 1 5.3-2.12c1.53-.47 2.76-.83 3.7-1.06a10.55 10.55 0 0 1 3-.53q5.64 0 3.7 9.71c-.47 1.88-1.17 4.65-2.11 8.29a90.88 90.88 0 0 1 7.15-8 79 79 0 0 1 7.67-6.79 38.59 38.59 0 0 1 7.86-4.77 19.21 19.21 0 0 1 7.9-1.75 7.39 7.39 0 0 1 5 1.77 11.92 11.92 0 0 1 3.18 4.68 21.52 21.52 0 0 1 1.39 6.83 48.76 48.76 0 0 1 -.35 8.21q2.82-3.7 6.26-7.5a60.57 60.57 0 0 1 7.24-6.8 41.34 41.34 0 0 1 7.85-4.94 18.57 18.57 0 0 1 8.12-1.94q4.77 0 7.32 2.82a15.55 15.55 0 0 1 3.56 7.24 31.64 31.64 0 0 1 .52 9.53 74 74 0 0 1 -1.5 9.89l-6 23.83q-1.94 8.84 3.71 8.83 4.41 0 9.71-4.24a79 79 0 0 0 10.33-10.06c3.35-3.89 6.5-7.88 9.44-12s5.41-7.41 7.42-9.88a3.7 3.7 0 0 1 2.2-1.41 2.42 2.42 0 0 1 1.94.44 2.64 2.64 0 0 1 .89 2 7.33 7.33 0 0 1 -1 3.53q-3.56 6.17-8.66 13.7a118.86 118.86 0 0 1 -11.21 14 67.89 67.89 0 0 1 -13 11 26.16 26.16 0 0 1 -14.3 4.41 21.78 21.78 0 0 1 -4.85-.53 12.32 12.32 0 0 1 -4.42-1.94 10.32 10.32 0 0 1 -3.26-3.79 13.12 13.12 0 0 1 -1.23-6.11z"/><path d="m476.47 99.62a60.94 60.94 0 0 1 -4.76 12.53 41.37 41.37 0 0 1 -7.15 10.06 31.19 31.19 0 0 1 -9.36 6.62 27 27 0 0 1 -11.39 2.39c-4.82 0-8.62-1-11.38-3.09a19 19 0 0 1 -6.18-7.68 30.58 30.58 0 0 1 -2.47-10.06c-.29-3.65-.44-7.07-.44-10.24a38.87 38.87 0 0 1 .79-7.42 66.08 66.08 0 0 1 2.21-8.3 57.48 57.48 0 0 1 3.66-8.43 42 42 0 0 1 5.2-7.77 14.6 14.6 0 0 1 3.27-5.29 19.33 19.33 0 0 1 5.12-3.8 27.38 27.38 0 0 1 6.27-2.29 28.22 28.22 0 0 1 6.53-.8 2.58 2.58 0 0 1 1 .18c.29.12.62.24 1 .35a17.76 17.76 0 0 1 5.61 1.73 24.43 24.43 0 0 1 6.71 4.76 26.55 26.55 0 0 1 7.85 19.78c0 .94-.06 2.09-.17 3.44s-.24 2.5-.36 3.44a88.47 88.47 0 0 0 8.48-3.88q4.49-2.29 8.59-4.85t7.68-5.21a54.44 54.44 0 0 0 5.65-4.79 6.3 6.3 0 0 1 3-1.77 1.6 1.6 0 0 1 1.76.71 3.35 3.35 0 0 1 .18 2.47 8.9 8.9 0 0 1 -1.94 3.59 53 53 0 0 1 -4.5 4.24q-3.63 3.18-8.57 6.88t-10.76 7.2a55.66 55.66 0 0 1 -11.13 5.3zm-41.13 4.23a56.46 56.46 0 0 0 .35 6.27 18.65 18.65 0 0 0 1.42 5.47 10.6 10.6 0 0 0 2.82 3.89 6.85 6.85 0 0 0 4.59 1.5 11.64 11.64 0 0 0 5.83-1.5 18.69 18.69 0 0 0 4.76-3.89 28.82 28.82 0 0 0 3.8-5.47 48.54 48.54 0 0 0 2.91-6.44c-.82.12-1.62.2-2.38.26s-1.62.09-2.56.09a17.64 17.64 0 0 1 -11.56-4 26.22 26.22 0 0 1 -7.51-10.15q-1.05 3.7-1.76 7.23a34.37 34.37 0 0 0 -.71 6.74zm11.3-31.07a10.65 10.65 0 0 0 -.53 3.36 53.37 53.37 0 0 0 .35 5.91 14.26 14.26 0 0 0 1.77 5.56 11.05 11.05 0 0 0 4.5 4.15q3.09 1.68 8.56 1.68a17.48 17.48 0 0 0 1.77-.09c.58-.06 1.17-.15 1.76-.27.36-1.52.68-2.91 1-4.14a14.07 14.07 0 0 0 .44-3.27 33 33 0 0 0 0-6.88 29.2 29.2 0 0 0 -1.32-6.45 15.09 15.09 0 0 0 -2.47-4.76 4.52 4.52 0 0 0 -3.62-1.86 12.27 12.27 0 0 0 -6.44 1.86 21.35 21.35 0 0 0 -5.77 5.2z"/><path d="m520.25 121.68a4.79 4.79 0 0 0 2.74.71 8.46 8.46 0 0 0 3.36-.71 12.7 12.7 0 0 0 3.17-1.94 7.18 7.18 0 0 0 2.21-3.18 10.89 10.89 0 0 0 0-5.56 52.41 52.41 0 0 0 -2.21-7.76q-1.5-4.15-3.26-8.39t-3-7.77q-1.07-2.64-1.77-4.94c-.47-1.29-.91-2.56-1.32-3.8a27.13 27.13 0 0 0 -1-2.56q-.88 1.43-3.09 4.59t-4.74 6.63q-2.56 3.45-4.85 6.36c-1.54 1.94-2.6 3.27-3.18 4a5.36 5.36 0 0 1 -2.74 1.86 2.44 2.44 0 0 1 -2.21-.53 3.21 3.21 0 0 1 -1-2.3 6.18 6.18 0 0 1 1.33-3.62q1-1.41 3.18-4.5t4.23-6.36q2.12-3.25 3.89-5.82a23.45 23.45 0 0 0 2.01-3.09 5.34 5.34 0 0 0 -1-3.71 6.47 6.47 0 0 1 -.44-5.29 18.14 18.14 0 0 1 3.17-5.74 32.63 32.63 0 0 1 5.83-5.92 26 26 0 0 1 6.88-4 7.71 7.71 0 0 1 6.36.09 15.31 15.31 0 0 1 3.71 3.09 4 4 0 0 1 1.05 3.48c-.24.59-.59 1.36-1.06 2.3a30.5 30.5 0 0 1 -2.12 3.44q-1.43 2-4.06 5.21a48.94 48.94 0 0 0 1.5 7.41q1 3.36 1.85 5.83a47.65 47.65 0 0 0 2.3 5.47c1.06 2.12 2.17 4.3 3.35 6.53s2.24 4.45 3.18 6.62a63.46 63.46 0 0 1 2.29 6.09 10.15 10.15 0 0 1 .53 4.77 22.17 22.17 0 0 1 -3.09 7.24 47.32 47.32 0 0 1 -6.35 8.21 39.33 39.33 0 0 1 -8.65 6.79 19.85 19.85 0 0 1 -10.15 2.83 12.71 12.71 0 0 1 -7.15-2.3 25 25 0 0 1 -9.36-11.47c-.77-2-.85-3.53-.26-4.59a25.5 25.5 0 0 1 1.94-3.36 18.61 18.61 0 0 1 2.65-2.82c.47-.35 1.06-.76 1.76-1.24a13.5 13.5 0 0 1 2.47-1.06l3.71-1.23a83.21 83.21 0 0 0 3.18 8.56q1.41 3.09 2.29 4.86a9.2 9.2 0 0 0 1.94 2.59z"/></g></svg>