<svg width="151" height="40" viewBox="0 0 151 40" fill="none" xmlns="http://www.w3.org/2000/svg">
<path d="M57.8037 29.9545V7.91942H65.7642C67.3503 7.91942 68.6585 8.18482 69.6888 8.71561C70.7191 9.23923 71.4862 9.94576 71.9902 10.8352C72.4942 11.7175 72.7462 12.6966 72.7462 13.7725C72.7462 14.7193 72.572 15.5011 72.2237 16.118C71.8827 16.7349 71.4306 17.2226 70.8673 17.5813C70.3114 17.9399 69.7073 18.2053 69.0551 18.3775V18.5927C69.7518 18.6357 70.4522 18.8724 71.1564 19.3028C71.8605 19.7331 72.4498 20.35 72.9241 21.1534C73.3985 21.9567 73.6357 22.9394 73.6357 24.1014C73.6357 25.206 73.3762 26.1995 72.8574 27.0817C72.3386 27.964 71.5195 28.6634 70.4003 29.1798C69.2811 29.6963 67.8247 29.9545 66.031 29.9545H57.8037ZM60.561 27.5874H66.031C67.8321 27.5874 69.1107 27.2503 69.8667 26.5761C70.6301 25.8946 71.0118 25.0698 71.0118 24.1014C71.0118 23.3554 70.8154 22.6668 70.4226 22.0356C70.0297 21.3972 69.4701 20.888 68.7438 20.5078C68.0174 20.1205 67.1576 19.9268 66.1644 19.9268H60.561V27.5874ZM60.561 17.6028H65.6752C66.5054 17.6028 67.254 17.445 67.921 17.1294C68.5955 16.8138 69.1292 16.3691 69.522 15.7952C69.9223 15.2214 70.1224 14.5472 70.1224 13.7725C70.1224 12.8041 69.774 11.9829 69.0773 11.3086C68.3806 10.6272 67.2762 10.2865 65.7642 10.2865H60.561V17.6028Z" fill="#161616"/>
<path d="M82.8358 30.3418C81.7536 30.3418 80.7715 30.1446 79.8895 29.75C79.0075 29.3484 78.3071 28.771 77.7882 28.0178C77.2694 27.2575 77.01 26.3393 77.01 25.2634C77.01 24.3166 77.2027 23.5491 77.5881 22.9609C77.9735 22.3656 78.4886 21.8993 79.1335 21.5622C79.7783 21.2251 80.4899 20.974 81.2681 20.8091C82.0538 20.6369 82.8432 20.5006 83.6363 20.4002C84.6739 20.2711 85.5152 20.1743 86.16 20.1097C86.8123 20.038 87.2866 19.9196 87.5831 19.7547C87.887 19.5897 88.039 19.3028 88.039 18.8939V18.8078C88.039 17.7463 87.7388 16.9214 87.1384 16.3332C86.5455 15.745 85.6449 15.4509 84.4367 15.4509C83.1841 15.4509 82.202 15.7163 81.4905 16.2471C80.7789 16.7779 80.2786 17.3446 79.9896 17.9471L77.4992 17.0863C77.9439 16.0821 78.5368 15.3003 79.278 14.7408C80.0266 14.1742 80.8419 13.7797 81.724 13.5573C82.6134 13.3278 83.488 13.213 84.3478 13.213C84.8963 13.213 85.5263 13.2776 86.2379 13.4067C86.9568 13.5286 87.6498 13.7832 88.3169 14.1706C88.9914 14.5579 89.551 15.1425 89.9957 15.9243C90.4404 16.7062 90.6628 17.7534 90.6628 19.0661V29.9545H88.039V27.7165H87.9055C87.7277 28.0752 87.4312 28.4589 87.0161 28.8678C86.601 29.2766 86.0489 29.6245 85.3595 29.9114C84.6702 30.1984 83.829 30.3418 82.8358 30.3418ZM83.236 28.0608C84.2737 28.0608 85.1483 27.8636 85.8598 27.4691C86.5788 27.0746 87.1199 26.5653 87.4831 25.9413C87.8537 25.3172 88.039 24.6609 88.039 23.9723V21.6483C87.9278 21.7774 87.6832 21.8958 87.3052 22.0034C86.9346 22.1038 86.5047 22.1934 86.0155 22.2723C85.5337 22.3441 85.0631 22.4086 84.6035 22.466C84.1514 22.5162 83.7845 22.5592 83.5028 22.5951C82.8209 22.6812 82.1835 22.8211 81.5906 23.0147C81.005 23.2012 80.5306 23.4845 80.1675 23.8647C79.8117 24.2377 79.6338 24.747 79.6338 25.3925C79.6338 26.2748 79.971 26.9419 80.6455 27.3938C81.3274 27.8385 82.1909 28.0608 83.236 28.0608Z" fill="#161616"/>
<path d="M98.0757 20.0129V29.9545H95.4519V13.4282H97.9867V16.0104H98.2091C98.6093 15.1712 99.2171 14.4969 100.032 13.9877C100.848 13.4712 101.9 13.213 103.19 13.213C104.346 13.213 105.358 13.4425 106.225 13.9016C107.092 14.3535 107.767 15.0421 108.249 15.9674C108.73 16.8855 108.971 18.0475 108.971 19.4534V29.9545H106.347V19.6255C106.347 18.3273 105.999 17.3159 105.302 16.5914C104.606 15.8598 103.649 15.494 102.434 15.494C101.596 15.494 100.848 15.6697 100.188 16.0212C99.5358 16.3727 99.0207 16.8855 98.6427 17.5598C98.2647 18.234 98.0757 19.0517 98.0757 20.0129Z" fill="#161616"/>
<path d="M122.393 23.0685H125.417L127.952 26.2963L128.619 27.1571L132.4 32.0203H129.375L126.885 28.7925L126.262 27.9748L122.393 23.0685ZM133.333 18.9369C133.333 21.261 132.9 23.2694 132.033 24.9622C131.165 26.655 129.976 27.9604 128.464 28.8785C126.952 29.7967 125.225 30.2557 123.283 30.2557C121.341 30.2557 119.614 29.7967 118.102 28.8785C116.59 27.9604 115.4 26.655 114.533 24.9622C113.666 23.2694 113.232 21.261 113.232 18.9369C113.232 16.6129 113.666 14.6045 114.533 12.9117C115.4 11.2189 116.59 9.91348 118.102 8.99536C119.614 8.07723 121.341 7.61816 123.283 7.61816C125.225 7.61816 126.952 8.07723 128.464 8.99536C129.976 9.91348 131.165 11.2189 132.033 12.9117C132.9 14.6045 133.333 16.6129 133.333 18.9369ZM130.665 18.9369C130.665 17.029 130.335 15.4187 129.676 14.106C129.023 12.7934 128.138 11.7999 127.018 11.1257C125.907 10.4514 124.661 10.1143 123.283 10.1143C121.904 10.1143 120.655 10.4514 119.536 11.1257C118.424 11.7999 117.539 12.7934 116.879 14.106C116.227 15.4187 115.901 17.029 115.901 18.9369C115.901 20.8449 116.227 22.4552 116.879 23.7679C117.539 25.0805 118.424 26.074 119.536 26.7482C120.655 27.4225 121.904 27.7596 123.283 27.7596C124.661 27.7596 125.907 27.4225 127.018 26.7482C128.138 26.074 129.023 25.0805 129.676 23.7679C130.335 22.4552 130.665 20.8449 130.665 18.9369Z" fill="#161616"/>
<path d="M148.376 23.1976V13.4282H151V29.9545H148.376V27.1571H148.198C147.798 27.9963 147.175 28.71 146.33 29.2982C145.485 29.8792 144.418 30.1697 143.128 30.1697C142.061 30.1697 141.112 29.9437 140.282 29.4918C139.452 29.0328 138.8 28.3442 138.325 27.426C137.851 26.5007 137.614 25.3351 137.614 23.9293V13.4282H140.238V23.7571C140.238 24.9622 140.586 25.9233 141.283 26.6406C141.987 27.3579 142.884 27.7165 143.973 27.7165C144.626 27.7165 145.289 27.5552 145.963 27.2324C146.645 26.9096 147.216 26.4147 147.676 25.7476C148.143 25.0805 148.376 24.2305 148.376 23.1976Z" fill="#161616"/>
<path d="M22.9607 11.7257C23.5083 11.622 24.4894 11.4878 24.961 11.452C25.067 11.444 25.7516 11.4414 26.4824 11.4463C27.8928 11.4558 28.3418 11.4911 29.3712 11.6733C32.3123 12.1937 34.7654 13.4137 36.692 15.3142C38.6236 17.2197 39.7976 19.6166 40.1976 22.4715C40.2996 23.199 40.3402 24.8613 40.2748 25.6228C40.056 28.1665 39.2705 30.3761 37.8811 32.3562C37.1318 33.424 36.3375 34.2592 35.1696 35.2072L35.0555 35.2998L35.5322 35.7964C35.7943 36.0695 36.3179 36.6142 36.6957 37.0068C37.4516 37.7923 37.4812 37.8441 37.2768 38.0262C37.1351 38.1524 35.1523 39.5939 35.0453 39.6484C34.9219 39.7113 34.6794 39.6992 34.5859 39.6255C34.5412 39.5902 34.0058 39.0348 33.3963 38.3914C32.7868 37.7479 32.2427 37.1768 32.1874 37.1221L32.0866 37.0227L31.6629 37.1898C29.2271 38.1505 26.4033 38.4818 23.6595 38.1288C19.0465 37.5353 15.2743 35.0295 13.2798 31.2336C12.763 30.2502 12.4445 29.423 12.1747 28.3632C12.0429 27.8457 11.9125 27.1561 11.8542 26.669L11.8226 26.4043L12.8261 26.3816C14.1789 26.351 14.7428 26.2983 15.6257 26.1199L16.0352 26.0372L16.0604 26.2747C16.0743 26.4053 16.1195 26.699 16.1609 26.9272C16.9686 31.3821 20.0351 34.366 24.4704 35.0129C25.5409 35.1691 26.9173 35.1531 28.0744 34.971C28.6196 34.8852 29.6793 34.6457 29.6793 34.6083C29.6793 34.594 29.2107 34.0835 28.6381 33.4737C28.0654 32.864 27.5714 32.3301 27.5403 32.2873C27.4526 32.1666 27.4728 32.0651 27.6091 31.9417C27.8606 31.7139 29.7807 30.3441 29.9088 30.301C30.167 30.2142 30.2047 30.2455 31.4949 31.6154C32.1575 32.319 32.7165 32.8947 32.7372 32.8947C32.7973 32.8947 33.5667 32.1255 33.8517 31.7805C35.046 30.3346 35.7614 28.6085 36.0606 26.4509C36.1558 25.7644 36.1558 23.8314 36.0605 23.1455C35.7136 20.6468 34.7697 18.6632 33.2239 17.1845C32.4056 16.4017 31.4465 15.7775 30.4112 15.354C27.0951 13.9977 22.8924 14.3022 20.1036 16.1011C18.5433 17.1075 17.412 18.4957 16.7162 20.2577C16.6255 20.4874 16.5396 20.7266 16.5254 20.789C16.4632 21.0624 15.4534 21.5796 14.618 21.7661C14.0734 21.8876 13.4463 21.9486 12.7581 21.9471C12.3806 21.9463 12.0644 21.9385 12.0554 21.9298C12.0465 21.9212 12.099 21.679 12.1722 21.3915C12.7035 19.305 13.7611 17.3836 15.2441 15.8103C15.9411 15.0709 16.9229 14.268 17.8164 13.7068C19.278 12.7888 21.1477 12.0687 22.9607 11.7257Z" fill="#345EC7"/>
<path fill-rule="evenodd" clip-rule="evenodd" d="M0.303403 0.0321695C0.25726 0.054082 0.201603 0.115957 0.179764 0.169661C0.153303 0.234656 0.113246 4.48041 0.0598998 12.8747C-0.0185203 25.2124 -0.0187129 25.4841 0.0521194 25.5755C0.0956434 25.6317 0.184617 25.6811 0.27517 25.6994C0.358058 25.7161 3.47638 25.7236 7.2048 25.7161C13.371 25.7036 14.1586 25.7082 14.9149 25.5801C15.0656 25.5546 15.215 25.5238 15.4054 25.4866C18.7974 24.8237 21.2362 22.7365 21.9597 19.8772C22.2419 18.7615 22.2401 17.4021 21.9549 16.3689C21.9013 16.1745 21.8439 16.0024 21.8276 15.9866C21.8112 15.9709 21.6245 16.0397 21.4127 16.1396C20.1954 16.7136 19.1883 17.5309 18.4325 18.5583C18.1973 18.8781 18.1702 18.9339 18.1461 19.1473C18.0896 19.6498 17.8446 20.2887 17.5438 20.7179C16.8443 21.7162 15.6791 22.3148 13.9645 22.5568C13.5738 22.6119 12.9783 22.621 8.91541 22.634L4.30922 22.6487L4.28376 21.749C4.26974 21.2542 4.25827 19.3471 4.25827 17.511V14.1727L8.69732 14.1856C13.0007 14.1982 13.1517 14.201 13.6371 14.2772C14.1718 14.3611 14.765 14.497 15.1357 14.6204C15.2608 14.6621 15.3758 14.6961 15.3912 14.6961C15.4066 14.6961 15.5642 14.5695 15.7415 14.4146C16.3838 13.8533 17.406 13.1521 18.2548 12.6906C18.5114 12.5511 18.6144 12.4769 18.5796 12.4565C18.5516 12.44 18.4358 12.376 18.3223 12.3141L18.1158 12.2016L18.4783 11.8611C19.3149 11.0755 19.8787 10.2316 20.2379 9.22697C20.5111 8.463 20.6275 7.75418 20.6268 6.85963C20.625 4.58307 19.577 2.70955 17.6052 1.45738C16.7047 0.88557 15.5024 0.429455 14.3236 0.212409C14.1239 0.175635 13.9702 0.145631 13.8152 0.121094C13.0896 0.00616236 12.3375 0.0111782 6.70408 0.0022719C2.26387 -0.0047104 0.362411 0.00416603 0.303403 0.0321695ZM16.5267 6.14465C16.0551 4.39882 14.4918 3.32919 12.0909 3.10965C11.6077 3.06546 4.18169 3.05569 4.18046 3.09922C4.1661 3.60662 4.1889 10.064 4.20646 10.473L4.23169 11.0594L8.58774 11.0462C12.8861 11.0332 12.9489 11.032 13.3268 10.9525C14.6415 10.6763 15.4896 10.1603 16.0771 9.27907C16.6075 8.48365 16.7986 7.15125 16.5267 6.14465Z" fill="#141414"/>
</svg>
