<svg viewBox="0 0 736 160" fill="none" xmlns="http://www.w3.org/2000/svg">
<path fill-rule="evenodd" clip-rule="evenodd" d="M169.727 9.9216C172.145 8.04489 172.584 4.56308 170.707 2.14477C168.831 -0.273544 165.349 -0.712598 162.931 1.16411C155.87 6.64313 149.376 11.5475 143.259 16.0034C140.785 17.8059 140.241 21.2728 142.043 23.747C143.846 26.2211 147.313 26.7655 149.787 24.963C156.012 20.4277 162.598 15.4539 169.727 9.9216ZM164.119 34.7194C165.977 37.152 165.512 40.6303 163.079 42.4885C152.742 50.3842 143.263 56.993 134.406 62.6175C131.822 64.2585 128.397 63.4941 126.756 60.9101C125.115 58.326 125.88 54.9009 128.464 53.2599C137.023 47.8238 146.241 41.4013 156.35 33.6792C158.783 31.8211 162.261 32.2868 164.119 34.7194ZM155.261 66.7193C157.055 69.1992 156.499 72.6638 154.019 74.4577C153.431 74.883 152.832 75.3129 152.224 75.7362C149.711 77.484 146.257 76.8641 144.51 74.3516C142.762 71.839 143.382 68.3852 145.894 66.6373C146.419 66.2725 146.953 65.8895 147.523 65.4773C150.002 63.6834 153.467 64.2394 155.261 66.7193ZM126.798 107.338C128.474 109.9 127.756 113.335 125.194 115.011C106.422 127.291 87.7749 133.784 70.265 138.658C67.316 139.479 64.2599 137.754 63.439 134.805C62.6181 131.856 64.3432 128.8 67.2922 127.979C84.2942 123.246 101.711 117.127 119.126 105.734C121.687 104.058 125.122 104.776 126.798 107.338ZM58.617 136.037C59.3733 139.003 57.5819 142.021 54.6157 142.777L53.7012 143.01L53.7002 143.011C47.8217 144.509 42.1831 145.946 36.7084 147.533C33.7684 148.386 30.694 146.693 29.8417 143.753C28.9893 140.813 30.6817 137.739 33.6217 136.887C39.2756 135.247 45.0763 133.769 50.9067 132.283L50.907 132.283L50.9087 132.282L51.8768 132.036C54.843 131.279 57.8607 133.071 58.617 136.037ZM17.0636 154.457C19.8614 153.216 21.1234 149.942 19.8823 147.144C18.6413 144.347 15.3671 143.085 12.5693 144.326C9.26032 145.793 5.98236 147.418 2.78483 149.252C0.130051 150.775 -0.787248 154.162 0.735986 156.817C2.25922 159.472 5.64617 160.389 8.30095 158.866C11.1134 157.252 14.0424 155.798 17.0636 154.457ZM140.608 83.6832C143.168 82.0047 143.882 78.5688 142.204 76.0089C140.525 73.4491 137.09 72.7345 134.53 74.413C124.637 80.8995 116.098 85.7004 106.821 90.1172C104.057 91.433 102.883 94.7402 104.199 97.5041C105.514 100.268 108.822 101.442 111.585 100.126C121.35 95.4776 130.326 90.425 140.608 83.6832ZM98.5564 100.013C99.7131 102.847 98.3532 106.082 95.5191 107.239C81.8814 112.805 69.5432 116.469 58.1921 119.595C55.2409 120.408 52.1895 118.674 51.3768 115.723C50.564 112.772 52.2975 109.721 55.2487 108.908C66.4375 105.826 78.2897 102.298 91.3304 96.9755C94.1645 95.8188 97.3997 97.1786 98.5564 100.013ZM40.1298 124.594C43.0928 123.825 44.8716 120.8 44.1028 117.837C43.334 114.874 40.3088 113.095 37.3459 113.864L35.0672 114.455C35.0176 114.468 34.9681 114.482 34.9189 114.496C24.9904 117.368 15.3423 120.605 5.74855 125.376C3.00768 126.739 1.89075 130.066 3.25382 132.807C4.61688 135.548 7.94378 136.665 10.6846 135.301C19.3962 130.969 28.2988 127.953 37.9259 125.166L40.1298 124.594ZM118.277 72.1816C120.96 70.7072 121.939 67.3372 120.465 64.6547C118.99 61.9721 115.62 60.9927 112.938 62.4671C89.9634 75.0946 71.1868 80.9265 49.6675 87.6103L49.6661 87.6107L49.6644 87.6112L49.6608 87.6124C44.8943 89.0928 39.9933 90.6151 34.8822 92.2623C31.9687 93.2013 30.368 96.3243 31.3069 99.2379C32.2459 102.151 35.369 103.752 38.2825 102.813C43.1962 101.23 47.9721 99.7477 52.6691 98.2904L52.6693 98.2903L52.6739 98.2889L52.6754 98.2884C74.2944 91.5809 94.2436 85.3913 118.277 72.1816ZM24.1836 101.684C25.1982 104.571 23.6798 107.735 20.7921 108.749C19.4692 109.214 18.1244 109.706 16.7478 110.218C13.8788 111.284 10.6886 109.823 9.62229 106.954C8.55594 104.085 10.0173 100.895 12.8862 99.8284C14.2929 99.3055 15.7068 98.7879 17.1179 98.292C20.0056 97.2775 23.169 98.7959 24.1836 101.684ZM136.044 27.9611C137.743 30.5074 137.056 33.9489 134.51 35.6479C127.453 40.3568 120.698 44.5437 113.901 48.3881C111.236 49.8951 107.855 48.9569 106.348 46.2925C104.841 43.6281 105.779 40.2464 108.443 38.7394C114.973 35.0459 121.496 31.0051 128.357 26.427C130.903 24.728 134.345 25.4148 136.044 27.9611ZM99.8187 55.7624C102.556 54.3936 103.666 51.0647 102.297 48.3271C100.928 45.5895 97.5995 44.4799 94.8619 45.8487C93.9246 46.3173 93.0022 46.7785 92.0698 47.2387C91.2649 47.6349 90.4962 48.0133 89.7329 48.3773C86.9703 49.6949 85.7988 53.0025 87.1164 55.7652C88.4339 58.5278 91.7416 59.6992 94.5042 58.3817C95.3357 57.9851 96.1619 57.5784 96.9525 57.1892L96.9726 57.1792C97.9341 56.7047 98.8812 56.2312 99.8134 55.7651L99.8187 55.7624ZM82.6501 57.7365C83.83 60.5611 82.4967 63.8073 79.6722 64.9872C65.8862 70.7459 50.309 76.4077 31.0964 83.0791C28.2047 84.0833 25.0465 82.5531 24.0423 79.6613C23.0382 76.7696 24.5684 73.6114 27.4601 72.6073C46.6269 65.9518 61.9405 60.3807 75.3995 54.7586C78.224 53.5787 81.4703 54.912 82.6501 57.7365ZM109.906 25.7801C112.58 24.2894 113.539 20.9135 112.048 18.24C110.557 15.5664 107.181 14.6076 104.508 16.0983C87.1685 25.7666 72.8929 33.3131 52.2604 40.8872C49.3868 41.9421 47.9125 45.1268 48.9674 48.0003C50.0222 50.8739 53.2069 52.3483 56.0805 51.2934C77.5225 43.4221 92.3886 35.5479 109.906 25.7801Z" fill="url(#paint0_linear)"/>
<path d="M288.76 76.6528C288.76 56.3366 275.26 45.0643 252.977 45.0643C230.826 45.0643 216.408 57.9094 216.408 80.5849C216.408 102.212 230.564 114.533 253.502 114.533C270.148 114.533 281.682 108.241 287.974 96.0515L278.274 91.595C273.949 100.115 265.692 104.571 254.026 104.571C238.166 104.571 228.598 96.3136 228.205 83.2064H288.76V76.6528ZM276.833 74.1624H228.205C228.86 61.7105 238.297 53.8462 252.846 53.8462C266.74 53.8462 276.702 60.6619 276.833 73.2449V74.1624Z" fill="#02284B"/>
<path d="M305.909 112.567H317.443V80.323C317.443 64.7254 327.011 55.026 341.954 55.026C355.847 55.026 362.794 62.3661 362.794 77.0462V112.567H374.328V75.3423C374.328 55.4193 364.367 44.9335 345.624 44.9335C331.992 44.9335 322.424 50.4385 317.05 61.3175V47.0306H305.909V112.567Z" fill="#02284B"/>
<path d="M413.88 112.57H426.725L457.396 47.0336H444.551L422.793 94.4817C421.744 97.1032 421.089 99.5936 420.433 101.822H420.171C419.647 99.5936 418.861 97.1032 417.812 94.4817L396.054 47.0336H383.209L413.88 112.57Z" fill="#02284B"/>
<path d="M500.086 114.533C522.499 114.533 537.442 101.032 537.442 79.7985C537.442 58.5648 522.499 45.0643 500.086 45.0643C477.673 45.0643 462.599 58.5648 462.599 79.7985C462.599 101.032 477.673 114.533 500.086 114.533ZM500.086 104.571C484.62 104.571 474.92 95.6582 474.92 79.7985C474.92 63.9387 484.62 55.0258 500.086 55.0258C515.553 55.0258 525.252 63.9387 525.252 79.7985C525.252 95.6582 515.553 104.571 500.086 104.571Z" fill="#02284B"/>
<path d="M564.725 63.679V47.0328H553.977V112.569H565.511V85.9613C565.511 77.4416 566.429 68.9218 572.327 62.8925C575.997 58.9603 581.109 56.601 589.367 56.601C590.939 56.601 592.119 56.7321 593.43 56.8632V45.591C591.857 45.3288 590.284 45.1978 588.449 45.1978C576.784 45.1978 568.133 53.0621 564.725 63.679Z" fill="#02284B"/>
<path d="M608.435 34.9731H621.935V20.4241H608.435V34.9731ZM609.483 112.568H621.018V47.0317H609.483V112.568Z" fill="#02284B"/>
<path d="M664.772 114.533C680.239 114.533 690.593 109.29 695.574 99.8526C695.705 104.44 695.967 108.897 696.623 112.567H708.681C707.24 106.668 706.715 100.901 706.715 89.76V72.4584C706.715 53.8462 696.23 45.0643 674.734 45.0643C654.942 45.0643 641.835 54.3705 640.393 68.1331H652.976C654.155 59.2201 662.02 54.3705 674.734 54.3705C688.103 54.3705 695.05 59.7444 695.05 71.1477V72.3274L670.67 74.1624C657.432 75.342 651.141 77.3081 646.291 80.1917C641.048 83.4685 638.165 88.8425 638.165 95.134C638.165 107.062 648.65 114.533 664.772 114.533ZM667.918 105.358C656.777 105.358 650.485 101.556 650.485 94.8718C650.485 87.925 655.073 84.5171 668.573 83.0753L695.181 80.5849V83.8617C695.181 96.969 684.04 105.358 667.918 105.358Z" fill="#02284B"/>
<path d="M723.39 45.0643H716.606V46.9326H719.051V54.3396H720.945V46.9326H723.39V45.0643Z" fill="#02284B"/>
<path d="M736 54.3396L734.646 45.0643H732.74L730.358 50.762L727.975 45.0643H726.082L724.702 54.3396H726.633L727.499 48.2974L730.119 54.3264H730.583L733.204 48.2974L734.069 54.3396H736Z" fill="#02284B"/>
<defs>
<linearGradient id="paint0_linear" x1="138.413" y1="17.1869" x2="0.000200333" y2="159.602" gradientUnits="userSpaceOnUse">
<stop stop-color="#5ADB7E"/>
<stop offset="0.494792" stop-color="#00CED2"/>
<stop offset="1" stop-color="#0042EB"/>
</linearGradient>
</defs>
</svg>
