<?xml version="1.0" encoding="UTF-8"?>
<svg width="164px" height="48px" viewBox="0 0 164 48" version="1.1" xmlns="http://www.w3.org/2000/svg" xmlns:xlink="http://www.w3.org/1999/xlink">
    <title>logo_svg</title>
    <g id="Round-3" stroke="none" stroke-width="1" fill="none" fill-rule="evenodd">
        <g id="All-Modules" transform="translate(-1125.000000, -9273.000000)" fill-rule="nonzero">
            <g id="logo_svg" transform="translate(1125.000000, 9273.000000)">
                <polygon id="Path" fill="#231F20" points="80.8663594 41.25 80.8663594 21 85.4009217 21 85.4009217 41.25"></polygon>
                <path d="M102.016656,41.2100777 L97.7780717,41.2100777 L97.7780717,32.1956175 C97.8418957,31.3227614 97.6371488,30.4512473 97.1909432,29.6964802 C96.7322986,29.1276523 96.0152614,28.8273014 95.2847866,28.8980338 C94.2768436,28.8129353 93.2984708,29.2621476 92.7110729,30.0797345 C92.0826206,31.2845588 91.804146,32.6391781 91.9067874,33.992122 L91.9067874,41.25 L87.6682028,41.25 L87.6682028,25.7840927 L90.8853448,25.7840927 L91.4724732,27.7802088 L91.705716,27.7802088 C92.1744381,27.0366899 92.8545199,26.447675 93.6601298,26.0875024 C94.550146,25.6927245 95.5165344,25.4964892 96.4912149,25.5126209 C98.0079611,25.4094477 99.4987908,25.9423658 100.601114,26.9817624 C101.602389,28.1346514 102.110344,29.6302609 102.016656,31.1496527 L102.016656,41.2100777 L102.016656,41.2100777 Z" id="Path" fill="#231F20"></path>
                <path d="M115.623907,36.2452631 C115.708172,37.689091 115.071541,39.0812351 113.922843,39.965042 C112.788801,40.8209203 111.087737,41.2488594 108.819652,41.2488594 C107.82622,41.2606671 106.833826,41.1807732 105.855177,41.0102011 C105.067633,40.8611795 104.298139,40.6294585 103.559567,40.3189147 L103.559567,36.739039 C104.438018,37.1434022 105.353276,37.4630701 106.292829,37.6936725 C107.165535,37.9306175 108.063999,38.0605085 108.968289,38.0804637 C110.548241,38.0804637 111.338217,37.6250925 111.338217,36.7143502 C111.348902,36.4091412 111.235797,36.1125051 111.024429,35.8913903 C110.700442,35.5996901 110.336152,35.3558057 109.942684,35.1671855 C109.430714,34.898352 108.745334,34.582884 107.886544,34.2207816 C106.932795,33.8550544 106.026296,33.3770949 105.186312,32.7970609 C104.650022,32.40899 104.218748,31.8943467 103.931158,31.2992739 C103.65222,30.6413852 103.519806,29.9310204 103.543052,29.2171852 C103.483685,27.9087607 104.10865,26.6630678 105.19457,25.9253455 C106.596149,25.0698241 108.227876,24.6647117 109.868366,24.764972 C111.792385,24.764972 113.080569,25.4233399 114.897239,26.2627591 L114.897239,29.1513484 C114.07148,28.8057053 112.618144,28.5258989 111.924506,28.3283885 C111.23827,28.1106808 110.522472,27.9996502 109.802305,27.9992045 C108.519626,27.9992045 107.878287,28.3448477 107.878287,29.036134 C107.8949,29.457669 108.129201,29.8406202 108.497606,30.0483748 C109.363632,30.550385 110.272807,30.9745139 111.214353,31.315733 C112.181828,31.672842 113.102365,32.1453668 113.955874,32.7229945 C114.500018,33.1150208 114.941789,33.6314952 115.244058,34.2290112 C115.520525,34.8642824 115.650335,35.5533145 115.623907,36.2452631 Z" id="Path" fill="#231F20"></path>
                <path d="M116.387097,21.5795763 C116.387097,20.1878392 117.142296,19.4946678 118.652695,19.5000309 C120.163094,19.5054565 120.918294,20.1986278 120.918294,21.5795763 C120.950977,22.1540031 120.744411,22.7156808 120.349921,23.1250518 C119.875512,23.5277124 119.266717,23.725077 118.652695,23.6752734 C117.142296,23.6752734 116.387097,22.9767077 116.387097,21.5795763 Z M120.752518,41.25 L116.592343,41.25 L116.592343,25.6172322 L120.752518,25.6172322 L120.752518,41.25 Z" id="Shape" fill="#231F20"></path>
                <path d="M136.792627,25.0704885 L136.792627,27.2792429 L134.347781,27.9220893 C134.799143,28.6349117 135.034283,29.4657718 135.024189,30.3121594 C135.098882,31.8512018 134.441665,33.3336412 133.25575,34.3011038 C131.83576,35.3301034 130.110103,35.8362018 128.36606,35.7351458 L127.591859,35.6939377 L126.956199,35.6197631 C126.567622,35.8689871 126.321818,36.2924988 126.296091,36.7571068 C126.296091,37.38347 127.083874,37.6966516 128.659441,37.6966516 L131.332472,37.6966516 C132.736648,37.601931 134.130056,38.000805 135.276823,38.8257536 C136.214645,39.6494046 136.718084,40.8688802 136.637787,42.1224019 C136.682471,43.8763262 135.804828,45.5228707 134.331482,46.4492528 C132.799379,47.4712138 130.596302,47.9821943 127.72225,47.9821943 C125.967907,48.0924427 124.219321,47.688983 122.685869,46.8201258 C121.577497,46.1436927 120.907369,44.9231983 120.92558,43.6141353 C120.88207,42.7028875 121.202098,41.8121178 121.813874,41.1416491 C122.527005,40.4272162 123.435257,39.9449926 124.421709,39.7570568 C123.951429,39.5689753 123.538299,39.2591778 123.223735,38.8587201 C122.548836,38.0152274 122.548836,36.8094039 123.223735,35.9659112 C123.661481,35.4926323 124.17028,35.0921164 124.731389,34.7791178 C123.91088,34.4248345 123.223053,33.8158204 122.767364,33.0401358 C122.269625,32.1877095 122.018336,31.2111645 122.04206,30.2215015 C121.951952,28.6872743 122.572365,27.1978965 123.720853,26.191349 C125.098018,25.1578799 126.793339,24.6525881 128.504601,24.7655486 C129.03097,24.7724649 129.556347,24.813759 130.077451,24.8891729 C130.680513,24.9715891 131.071689,25.0292804 131.242828,25.0704885 L136.73558,25.0704885 L136.792627,25.0704885 Z M124.641745,43.2020543 C124.632456,43.7887102 124.946562,44.3319046 125.456694,44.6113714 C126.194022,44.9920118 127.017901,45.1683191 127.844493,45.1223519 C129.082636,45.1789938 130.317945,44.9595266 131.462864,44.4795055 C132.207479,44.2428366 132.738051,43.5761892 132.807529,42.7899732 C132.844233,42.2510952 132.53074,41.75051 132.033328,41.5537301 C131.263478,41.2868266 130.450063,41.1721087 129.637379,41.2158236 L127.41257,41.2158236 C126.710814,41.1891286 126.018376,41.3850878 125.432245,41.7762539 C124.937359,42.0957504 124.638969,42.6495021 124.641745,43.2432624 L124.641745,43.2020543 Z M126.206446,30.2462264 C126.166277,30.9777779 126.373181,31.7014121 126.793209,32.29839 C127.230786,32.8247946 127.891601,33.1068233 128.569797,33.0566191 C129.249119,33.1138503 129.913,32.8305126 130.346384,32.29839 C130.753142,31.6960796 130.950903,30.9743544 130.908699,30.2462264 C130.908699,28.3286759 130.129065,27.3699007 128.569797,27.3699007 C127.010529,27.3699007 126.222745,28.3396648 126.206446,30.2791929 L126.206446,30.2462264 Z" id="Shape" fill="#231F20"></path>
                <path d="M151.896086,41.25 L147.657724,41.25 L147.657724,32.1180736 C147.657724,29.8640759 146.823992,28.737077 145.156528,28.737077 C144.147705,28.6540761 143.17092,29.1160107 142.590992,29.9503533 C141.968156,31.1641361 141.689892,32.5270466 141.786749,33.889457 L141.786749,41.2419115 L137.548387,41.2419115 L137.548387,19.5 L141.786749,19.5 L141.786749,23.9325028 C141.786749,24.2776125 141.754579,25.0864634 141.69024,26.3590554 L141.601773,27.6451283 L141.818919,27.6451283 C142.786246,26.1059303 144.516771,25.2263864 146.322681,25.3560803 C147.853141,25.2455927 149.360077,25.7820514 150.480618,26.8362774 C151.48488,28.0024442 151.993238,29.5188268 151.896086,31.058479 L151.896086,41.25 L151.896086,41.25 Z" id="Path" fill="#231F20"></path>
                <path d="M161.193373,37.81356 C162.149308,37.7827572 163.095199,37.614354 164,37.3138776 L164,40.5249513 C162.703262,41.040159 161.309316,41.2857435 159.908411,41.2458046 C158.1275,41.2458046 156.828448,40.8089238 156.011258,39.9351622 C155.116276,38.8193297 154.682289,37.4204901 154.793926,36.0114268 L154.793926,28.3605522 L152.663594,28.3605522 L152.663594,26.5338445 L155.115166,25.0921379 L156.400128,21.75 L159.249023,21.75 L159.249023,25.1167125 L163.805565,25.1167125 L163.805565,28.3933183 L159.232116,28.3933183 L159.232116,36.0196183 C159.1886,36.5275593 159.384349,37.0273442 159.764699,37.3794097 C160.169917,37.6889007 160.678331,37.8433991 161.193373,37.81356 L161.193373,37.81356 Z" id="Path" fill="#231F20"></path>
                <path d="M23.8419957,38.8730045 C24.1589495,38.374404 24.3857211,37.8230134 24.5117675,37.2444682 C24.8860182,36.2070589 25.1827314,35.1428187 25.3994169,34.0606798 C25.681157,32.5556474 25.7625711,31.0194037 25.6415031,29.4926355 C25.5080298,27.9324465 25.0516881,26.4178626 24.3019595,25.0467314 C23.4629804,23.5784218 22.3697202,22.2739239 21.0741436,21.1952431 C19.6942523,20.0064116 18.0238576,18.923435 16.4341583,17.7671742 C14.8691496,16.6564369 13.3932426,15.4230806 12.02012,14.0785396 C10.7894139,12.8540905 9.7060032,11.4875522 8.79230415,10.0071988 C8.06223581,8.78205488 7.47465575,7.47602266 7.04121403,6.11499711 C6.67599542,5.06982821 6.4058946,3.99325968 6.23426006,2.89863794 C6.14885994,2.18804024 6.10574509,1.47291628 6.10514742,0.757112725 C6.13370642,0.514127687 6.09165265,0.268004999 5.98410433,0.0486994406 C5.91954801,-0.0327273737 5.81464399,-0.0327273737 5.58062734,0.211553069 C5.08853562,0.776069302 4.67580434,1.40625758 4.3540573,2.0843698 C3.49557331,3.79204387 2.74888671,5.55463781 2.1187948,7.36082737 C1.18005216,9.9076399 0.535608698,12.5552274 0.198244341,15.2510857 C-0.150316974,18.2822207 -0.0387508229,21.3492678 0.52909547,24.3464608 C1.04731643,26.9234162 1.97663893,29.3984051 3.28080852,31.6748741 C4.26549024,33.4330942 5.51812882,35.024076 6.99279679,36.3894867 C8.32018312,37.6243372 9.78203602,38.7033477 11.3503482,39.6058459 C12.5126025,40.2819334 13.7866557,40.7398943 15.1107538,40.957531 C16.4163103,41.1832847 17.7407275,41.2787434 19.0648282,41.2425248 C19.812402,41.2109991 20.5528307,41.0823707 21.2678126,40.8598188 C21.5608096,40.783791 21.8469437,40.6830087 22.1231838,40.5585396 C22.2522964,40.4852554 22.2442269,40.4038286 21.5018292,39.8745543 C20.7594316,39.34528 19.2988449,38.376301 18.0642053,37.4724633 C16.8853026,36.6206862 15.7663341,35.6874694 14.7153463,34.6795236 C13.6178889,33.620975 12.4155275,32.3507167 11.4471827,31.2270267 C10.6042663,30.2754408 9.82772948,29.2660435 9.12315528,28.2060918 C8.56549569,27.3443472 8.07965666,26.4373983 7.67063813,25.4945789 C7.31854409,24.6994451 7.01404437,23.8837114 6.75878014,23.0517745 C6.56839066,22.4340805 6.42540639,21.8025141 6.33109453,21.1626724 C6.25945676,20.6854539 6.21902168,20.2039952 6.21005144,19.7214178 C6.21005144,19.4038532 6.25039914,19.3142837 6.36337269,19.7214178 C6.539925,20.4652508 6.75541484,21.199121 7.00893587,21.9199418 C7.45625612,23.076428 8.04737545,24.1708816 8.76809553,25.1770143 C9.74891441,26.5261403 10.8022217,27.8200501 11.9232856,29.0529307 C12.8911522,30.168726 13.9174486,31.2315058 14.9977802,32.2367192 C16.0871681,33.2464117 17.3379467,34.3049602 18.4111955,35.1599418 C19.4844443,36.0149233 20.3801632,36.6744805 21.1386999,37.2281829 L22.9624159,38.5391546 C23.3981711,38.8648618 23.6483268,39.0684289 23.8662044,38.8811472" id="Path" fill="#5CB85C"></path>
                <polygon id="Path" fill="#5CB85C" points="42.3225806 41.25 28.718894 41.25 28.718894 21 42.3225806 21 42.3225806 24.5192993 33.7260878 24.5192993 33.7260878 28.9605107 41.731116 28.9605107 41.731116 32.47981 33.7260878 32.47981 33.7260878 37.6986342 42.3225806 37.6986342 42.3225806 41.2419834"></polygon>
                <polygon id="Path" fill="#5CB85C" points="61.2165899 41.25 56.233021 41.25 56.233021 32.5118765 48.0619098 32.5118765 48.0619098 41.25 43.078341 41.25 43.078341 21 48.0619098 21 48.0619098 28.9364608 56.233021 28.9364608 56.233021 21 61.2165899 21 61.2165899 41.25"></polygon>
                <path d="M77.8404517,35.2516009 C77.9009231,37.013141 77.001085,38.6762473 75.4698358,39.6330402 C73.8894252,40.7089001 71.6885365,41.24683 68.8671697,41.24683 C66.5069083,41.2909672 64.1617417,40.8737988 61.9723502,40.0203498 L61.9723502,35.9858752 C63.3306645,36.5120615 64.7252462,36.9461457 66.1459698,37.284976 C67.1685928,37.5241295 68.2157972,37.6513426 69.2678372,37.6642166 C70.170518,37.7145637 71.070462,37.5277495 71.8721757,37.123597 C72.460957,36.7898061 72.8109511,36.1690251 72.7820248,35.5098072 C72.7860688,35.1196248 72.6437288,34.7412399 72.3813573,34.444706 C72.0499336,34.0651583 71.6514288,33.7455085 71.2043966,33.5006389 C70.1789298,32.98649 69.1256638,32.5258979 68.0491403,32.1208486 C66.8695902,31.6915835 65.7484003,31.1252926 64.7102446,30.4344383 C63.9963519,29.9259093 63.3923411,29.287212 62.9322827,28.5543732 C62.4747635,27.7933419 62.2436678,26.9249085 62.2645036,26.04493 C62.2021272,24.3610678 63.0250573,22.7609705 64.4514802,21.7925939 C66.2477306,20.677725 68.3640988,20.1436668 70.4948813,20.2675625 C71.7132717,20.2635187 72.928335,20.390717 74.1175831,20.6468031 C75.1809917,20.9243732 76.2216773,21.2776834 77.2311032,21.7038354 L77.2311032,25.0605182 C75.7877001,24.6659745 74.3216436,24.3534406 72.8404555,24.1245201 C72.017836,23.9503224 71.1784052,23.8610635 70.3362838,23.8582448 C69.5434149,23.8094235 68.7555458,24.0104412 68.0908765,24.4311402 C67.5913714,24.7701028 67.2976202,25.325935 67.306236,25.9158268 C67.2989777,26.2709956 67.4101954,26.6189878 67.6234311,26.9083076 C67.9007066,27.2400374 68.2441946,27.5144476 68.633447,27.7152025 C69.6941457,28.2473888 70.7836372,28.724143 71.8972175,29.1434064 C73.6363542,29.7286696 75.228898,30.6605865 76.5716713,31.8787802 C77.4222847,32.8065406 77.8758948,34.0123801 77.8404517,35.2516009 L77.8404517,35.2516009 Z" id="Path" fill="#5AB75B"></path>
            </g>
        </g>
    </g>
</svg>