<svg xmlns="http://www.w3.org/2000/svg" width="194" height="70" viewBox="0 0 194 70" fill="none"><g clip-path="url(#clip0_122_1487)"><path d="M63.1267 64.6569C62.9227 64.6569 62.7646 64.4521 62.7646 64.2933V47.856C62.7646 47.6511 62.9227 47.4923 63.1267 47.4923H65.8652C66.0912 47.4923 66.2272 47.6511 66.2272 47.856V64.2933C66.2272 64.4521 66.0692 64.6569 65.8652 64.6569H63.1267Z" fill="white"></path><path d="M76.7561 64.6569C76.5521 64.6569 76.394 64.4964 76.394 64.2933V58.45C76.394 56.381 75.692 55.8809 74.582 55.8809C73.812 55.8809 72.9977 56.381 72.4079 56.9256C72.1597 57.1526 72.0016 57.5401 72.0016 57.9481V64.2916C72.0016 64.4947 71.8419 64.6552 71.6396 64.6552H69.3074C69.1034 64.6552 68.9453 64.4947 68.9453 64.2916V53.7658C68.9453 53.561 69.1034 53.4022 69.3074 53.4022H71.6396C71.8656 53.4022 72.0016 53.561 72.0016 53.7658V54.3121C72.0016 54.5169 72.1597 54.6074 72.3178 54.4708C72.7037 54.0168 73.9701 53.1069 75.6682 53.1069C78.7024 53.1069 79.4487 55.4712 79.4487 57.2448V64.2933C79.4487 64.4964 79.2906 64.6569 79.0866 64.6569H76.7544H76.7561Z" fill="white"></path><path d="M81.5122 63.8153C81.264 63.6788 81.2181 63.52 81.3762 63.2691L82.4624 61.7003C82.5763 61.5415 82.7564 61.4954 82.9604 61.6098C83.5945 61.9973 85.2688 62.4958 86.0388 62.4958C86.9891 62.4958 87.533 62.1322 87.533 61.6098C87.533 61.2018 87.2151 60.8365 85.9929 60.4046C82.3944 59.1311 81.7586 57.9259 81.7586 56.3111C81.7586 55.2424 82.5287 53.0147 86.2411 53.0147C87.5092 53.0147 88.8674 53.4244 89.8635 53.8785C90.0675 53.969 90.1338 54.1277 89.9995 54.3787L89.1615 55.9031C89.0476 56.0857 88.8436 56.1523 88.7076 56.0618C88.1874 55.6982 87.0553 55.3568 86.1952 55.3568C85.3351 55.3568 84.8371 55.7204 84.8371 56.1523C84.8371 56.6525 85.0189 56.9017 86.8293 57.5623C89.7275 58.6071 90.6097 59.6774 90.6097 61.4954C90.6097 63.6327 88.7076 64.9983 86.0371 64.9983C83.931 64.9983 82.4607 64.3377 81.5088 63.8153H81.5122Z" fill="white"></path><path d="M92.4248 49.8345C92.4248 48.8341 93.2407 48.0386 94.2368 48.0386C95.233 48.0386 96.0489 48.8341 96.0489 49.8345C96.0489 50.8348 95.233 51.6542 94.2368 51.6542C93.2407 51.6542 92.4248 50.8587 92.4248 49.8345ZM93.081 64.6569C92.877 64.6569 92.7189 64.4965 92.7189 64.2933V53.7437C92.7189 53.561 92.877 53.4022 93.081 53.4022H95.4352C95.6392 53.4022 95.7973 53.561 95.7973 53.7437V64.2933C95.7973 64.4965 95.6392 64.6569 95.4352 64.6569H93.081Z" fill="white"></path><path d="M106.914 63.998V63.2929C106.914 63.1342 106.71 62.9976 106.598 63.1342C105.736 64.0441 104.944 64.3616 103.338 64.3616C100.078 64.3616 97.8594 61.8385 97.8594 58.7453C97.8594 55.6521 100.124 53.1069 103.54 53.1069C104.65 53.1069 105.872 53.4261 106.71 54.3564C106.801 54.4708 107.005 54.4025 107.005 54.1977V53.7436C107.005 53.5609 107.163 53.4022 107.367 53.4022H109.631C109.835 53.4022 109.971 53.5609 109.971 53.7436V64.1106C109.971 66.8829 108.205 69.9983 103.836 69.9983C100.871 69.9983 99.5116 69.0884 98.6073 67.5435C98.5172 67.3831 98.5835 67.1799 98.7875 67.1117L100.826 66.3383C101.098 66.2479 101.256 66.2923 101.438 66.4749C102.049 67.0656 102.842 67.4292 103.906 67.4292C105.898 67.4292 106.918 65.9287 106.918 63.9963L106.914 63.998ZM100.982 58.747C100.982 60.3602 102.092 61.5876 103.948 61.5876C105.442 61.5876 106.913 60.565 106.913 58.7009C106.913 57.086 105.645 55.8826 103.992 55.8826C102.182 55.8826 100.98 57.0878 100.98 58.747H100.982Z" fill="white"></path><path d="M120.026 64.6569C119.822 64.6569 119.686 64.4964 119.686 64.2933V58.45C119.686 56.4715 118.984 55.8809 117.874 55.8809C117.104 55.8809 116.289 56.4271 115.61 57.04C115.383 57.2448 115.293 57.4958 115.293 57.7894V64.2916C115.293 64.4947 115.157 64.6552 114.952 64.6552H112.597C112.395 64.6552 112.235 64.4947 112.235 64.2916V47.5589C112.235 47.3558 112.395 47.1953 112.597 47.1953H114.952C115.156 47.1953 115.293 47.3541 115.293 47.5589V54.3121C115.293 54.5169 115.496 54.6074 115.61 54.4708C116.288 53.6514 117.42 53.1069 118.96 53.1069C121.992 53.1069 122.74 55.4712 122.74 57.2448V64.2933C122.74 64.4964 122.582 64.6569 122.378 64.6569H120.024H120.026Z" fill="white"></path><path d="M131.234 62.2704V64.4299C131.234 64.5886 131.1 64.7935 130.894 64.7935C127.272 64.7935 125.824 63.4295 125.824 59.9966V56.4732C125.824 56.2701 125.754 56.224 125.574 56.224H124.466C124.262 56.224 124.104 56.0891 124.104 55.8826V53.7453C124.104 53.5627 124.262 53.4039 124.466 53.4039H125.574C125.756 53.4039 125.824 53.2912 125.824 53.1086V49.9249C125.824 49.7644 125.96 49.5613 126.164 49.5613H128.54C128.722 49.5613 128.88 49.7644 128.88 49.9249V53.1086C128.88 53.2912 128.992 53.4039 129.174 53.4039H130.328C130.532 53.4039 130.69 53.5627 130.69 53.7453V55.8826C130.69 56.0874 130.532 56.224 130.328 56.224H129.174C128.992 56.224 128.88 56.2701 128.88 56.4732V59.1789C128.88 60.997 129.444 61.8163 130.849 61.8163C131.12 61.8163 131.234 61.9751 131.234 62.2704Z" fill="white"></path><path d="M0 2.72107H4.12043V35.9474H0V38.1274H22.132V35.9474H18.0133V2.72107H22.132V0.64698H0V2.72107Z" fill="white"></path><path d="M173.725 0C167.753 0 162.65 2.05189 158.938 5.88597C155.602 9.28815 153.505 14.4708 153.505 19.5493C153.505 25.3278 156.141 31.1062 160.388 34.6142C163.886 37.5316 168.513 39.1516 173.725 39.1516C185.771 39.1516 194 30.4029 194 19.5476C194 8.69239 185.771 0 173.725 0ZM177.629 31.1062C177.629 35.6419 176.252 37.6391 173.725 37.6391C171.197 37.6391 169.873 35.5889 169.873 31.1062V7.99249C169.873 3.50802 171.195 1.51075 173.725 1.51075C176.254 1.51075 177.629 3.45681 177.629 7.99249V31.1062Z" fill="white"></path><path d="M153.739 0.64698H141.454V2.72107H141.646C145.733 2.72107 146.297 3.6941 146.297 6.9324V20.6367L131.884 0.64698H113.492V2.72107H113.686C114.537 2.72107 115.981 2.90884 116.613 3.78798C116.844 4.11062 117.305 4.74906 117.827 5.47457V31.7924C117.827 35.0324 117.634 35.9508 113.601 35.9508H113.49V38.1274H125.019V35.9508C124.935 35.9508 124.857 35.9508 124.779 35.9508C120.796 35.9508 120.451 35.0444 120.451 31.7941V8.73336L141.595 38.1274H148.816V6.9324C148.816 3.69239 149.377 2.72107 153.409 2.72107H153.736V0.64698H153.739Z" fill="white"></path><path d="M96.5085 0.64698H86.3299L75.3149 31.6883C74.6196 33.6582 73.5606 34.9385 72.0546 35.5599C71.5837 35.7528 70.9276 35.9491 70.2816 35.9491H68.6498L54.2368 10.8262C54.2368 10.8262 58.9895 6.05155 59.4791 5.55651C61.0294 3.99795 63.5077 3.05565 65.2909 2.86275C66.0711 2.78081 67.0927 2.71936 67.9817 2.71936V0.64698H50.934V2.72107H52.695C53.5415 2.72107 55.2482 2.69034 55.9009 3.82383C56.3395 4.58348 56.0811 5.80744 55.0969 6.79584L43.1147 18.8648V2.72107H46.6368V0.64698H25.2119V2.72107H28.955V35.9474H25.2119V38.1273H46.6198V35.9474H43.1147V18.9194L52.8752 35.9474H48.8636V38.1273H81.0145V35.9423H80.479C80.2155 35.9423 79.5492 35.886 79.4132 35.8501C76.775 35.1656 77.4023 33.1615 77.9343 31.6507L79.8569 26.1574H90.7325L94.2443 35.9491H91.0146V38.1291H111.758V35.9491H109.302L96.5085 0.64698ZM80.7255 23.6856L85.2046 10.8945L89.8265 23.6856H80.7272H80.7255Z" fill="white"></path></g><defs><clipPath id="clip0_122_1487"><rect width="194" height="70" fill="white"></rect></clipPath></defs></svg>