<?xml version="1.0" encoding="UTF-8"?>
<svg xmlns="http://www.w3.org/2000/svg" viewBox="0 0 187.35 43.95">
  <defs>
    <style>.cls-1{fill:#ef373e;}</style>
  </defs>
  <g id="Layer_2" data-name="Layer 2">
    <g id="Capa_1" data-name="Capa 1">
      <path class="cls-1" d="M32.21,12.4c0-.64-.53-1.1-1.39-1.58l-12.09-7-.47-.29a6.82,6.82,0,0,0-3.52-1.22,5.63,5.63,0,0,0-3,.95L3.43,8.07a7.85,7.85,0,0,0-.84.58,6.08,6.08,0,0,0-.74.7A7.11,7.11,0,0,0,0,14.12V28.28a5.82,5.82,0,0,0,3.38,5.63l.45.26V18.09a5.6,5.6,0,0,1,.49-2.76,2.37,2.37,0,0,1,.81-.85c.65-.41,1.81-.67,3.64.39l8,4.59a4.38,4.38,0,0,0,2.27.7,5.66,5.66,0,0,0,2.84-1l.41-.23L30.75,14C31.85,13.43,32.21,13,32.21,12.4Zm-25.14-2,6.67-3.85a2,2,0,0,1,1-.31,1.84,1.84,0,0,1,1,.29L25.87,12.4,21,15.19a3.64,3.64,0,0,1-1.88.67A4.14,4.14,0,0,1,17,15.2L9.85,11A4.3,4.3,0,0,0,7.07,10.41ZM22.12,36.79c.56.33,1.22.1,2.07-.4l12.09-7,.48-.26a6.77,6.77,0,0,0,2.82-2.43,5.59,5.59,0,0,0,.68-3.08V14A6.8,6.8,0,0,0,40,12a7.17,7.17,0,0,0-3.21-4L24.48,1a5.83,5.83,0,0,0-6.57.11l-.45.27,13.92,8a5.57,5.57,0,0,1,2.15,1.81,2.34,2.34,0,0,1,.33,1.12c0,.77-.32,1.91-2.16,3l-7.95,4.59A4.36,4.36,0,0,0,22,21.47a5.64,5.64,0,0,0-.56,3V34.73C21.41,36,21.65,36.52,22.12,36.79ZM36.42,16v7.7a1.86,1.86,0,0,1-.24,1,1.84,1.84,0,0,1-.73.69L25.3,31.3V25.7a3.68,3.68,0,0,1,.35-2,4.32,4.32,0,0,1,1.62-1.48l7.2-4.15A4.33,4.33,0,0,0,36.42,16ZM6.05,15.87c-.56.32-.7,1-.68,2v14c0,.18,0,.36,0,.55A6.72,6.72,0,0,0,6.05,36a5.72,5.72,0,0,0,2.32,2.13L16.69,43a6,6,0,0,0,.92.43,6.87,6.87,0,0,0,1,.3,7.16,7.16,0,0,0,5.06-.79L35.9,35.82a5.81,5.81,0,0,0,3.18-5.74v-.52l-13.92,8a5.59,5.59,0,0,1-2.64.95,2.46,2.46,0,0,1-1.14-.27c-.67-.36-1.48-1.23-1.48-3.35V25.75a4.4,4.4,0,0,0-.53-2.32,5.67,5.67,0,0,0-2.27-2l-.41-.24L8.17,16.32C7.11,15.66,6.52,15.59,6.05,15.87ZM16.88,38.63l-6.66-3.85a2,2,0,0,1-.78-.73,2,2,0,0,1-.23-1V21.36l4.85,2.81a3.64,3.64,0,0,1,1.52,1.29,4.24,4.24,0,0,1,.47,2.14v8.31A4.31,4.31,0,0,0,16.88,38.63Z"></path>
      <path class="cls-1" d="M69.48,21.45A11.72,11.72,0,0,1,62,23.79H56.11v10.7H50.85V4.21H62c8.41,0,10.46,5,10.46,9.6C72.44,17.06,71.1,20.06,69.48,21.45ZM62.27,8.94H56.11V19.06h6.16a4.84,4.84,0,0,0,5-5.25A4.66,4.66,0,0,0,62.27,8.94Zm23,9.31c-2.53,0-4,.62-4.73,1.43s-1.1,2.34-1.1,4.44V34.49H74.78V14.14h4.4v2.34a7,7,0,0,1,2.34-2,9.43,9.43,0,0,1,3.77-.62Zm18.87,13.56A10.78,10.78,0,0,1,96.23,35a10.37,10.37,0,0,1-7.74-3.39,11,11,0,0,1-2.82-7.4A12.3,12.3,0,0,1,88,17.44a10.72,10.72,0,0,1,8.22-3.92,10.56,10.56,0,0,1,8.64,4.2,11.67,11.67,0,0,1,2.15,6.5A10.65,10.65,0,0,1,104.16,31.81Zm-12-3.15a5.32,5.32,0,0,0,4.11,1.67,5.63,5.63,0,0,0,4.3-1.72,6,6,0,0,0,1.57-4.39,6.1,6.1,0,0,0-1.67-4.39,5.72,5.72,0,0,0-4.2-1.63,5.32,5.32,0,0,0-4.06,1.67,6.12,6.12,0,0,0-1.63,4.35A6.09,6.09,0,0,0,92.12,28.66ZM113.8,44h-4.68V14.14h4.68v1.67a9.59,9.59,0,0,1,6.31-2.19,9.9,9.9,0,0,1,7.59,3.24,10.67,10.67,0,0,1,2.91,7.46,11.38,11.38,0,0,1-4.05,8.54,10.07,10.07,0,0,1-6.4,2.15,11.52,11.52,0,0,1-3.49-.52,9.16,9.16,0,0,1-2.87-1.63Zm1.87-15.38a5.78,5.78,0,0,0,8.31,0,6,6,0,0,0,1.76-4.25A5.88,5.88,0,0,0,124,20a6,6,0,0,0-4.4-1.72,5.24,5.24,0,0,0-4,1.72,5.79,5.79,0,0,0-1.63,4.2A5.91,5.91,0,0,0,115.67,28.57Zm36.53,5.92h-4.68V25.22c0-3.91-.57-6.87-5.06-6.87-3.77,0-5.11,2.72-5.11,6.87v9.27h-4.68V4h4.73V16.43a7,7,0,0,1,2.38-1.86,10.46,10.46,0,0,1,3.73-1c2.53,0,5.3.86,6.64,2.43a10.12,10.12,0,0,1,2,6.74Zm5.16-23.6A2.87,2.87,0,1,1,160.23,8,2.86,2.86,0,0,1,157.36,10.89Zm2.39,23.6h-4.68V14.14h4.68Zm22.69,0H177l-5-7.12-5,7.12h-5.34l7.73-10.75-6.92-9.6h5.35l4.15,5.92,4.16-5.92h5.39l-6.92,9.6Zm2.29-20.35a2.69,2.69,0,0,1-2.68-2.62,2.7,2.7,0,0,1,2.68-2.63,2.63,2.63,0,0,1,0,5.25Zm0-4.82a2.19,2.19,0,0,0-2.2,2.2,2.18,2.18,0,1,0,4.35,0A2.18,2.18,0,0,0,184.73,9.32ZM186,13h-.67l-.57-1.24h-.53V13h-.57V10h1.1c.62,0,1.19.24,1.19.86a.8.8,0,0,1-.62.81Zm-1.39-2.49h-.38v.91h.38c.43,0,.77,0,.77-.43S184.92,10.46,184.63,10.46Z"></path>
    </g>
  </g>
</svg>
