<svg width="1500" height="272" viewBox="0 0 1500 272" fill="none" xmlns="http://www.w3.org/2000/svg">
<g clip-path="url(#clip0_9:1771)">
<path d="M146 0.4C142.55 0.14 139.08 0 135.57 0C132.06 0 128.57 0.14 125.14 0.4C91.099 3.03715 59.3067 18.4215 36.1152 43.4791C12.9238 68.5367 0.0410156 101.422 0.0410156 135.565C0.0410156 169.708 12.9238 202.593 36.1152 227.651C59.3067 252.709 91.099 268.093 125.14 270.73C128.58 270.99 132.07 271.13 135.57 271.13C139.07 271.13 142.57 270.99 146 270.73C180.04 268.093 211.833 252.709 235.024 227.651C258.216 202.593 271.098 169.708 271.098 135.565C271.098 101.422 258.216 68.5367 235.024 43.4791C211.833 18.4215 180.04 3.03715 146 0.4V0.4ZM135.56 135.56L125.13 129.56V249.8C96.6224 247.211 70.1132 234.057 50.8095 212.921C31.5057 191.785 20.8026 164.195 20.8026 135.57C20.8026 106.945 31.5057 79.3552 50.8095 58.2191C70.1132 37.083 96.6224 23.9287 125.13 21.34V106.08C128.477 104.883 132.005 104.274 135.56 104.28C141.051 104.28 146.445 105.725 151.2 108.47C155.955 111.216 159.904 115.165 162.65 119.92C165.395 124.675 166.84 130.069 166.84 135.56C166.841 141.051 165.395 146.445 162.65 151.2L180.72 161.64C184.85 154.482 187.22 146.445 187.635 138.191C188.051 129.937 186.499 121.703 183.109 114.166C179.718 106.629 174.586 100.006 168.134 94.841C161.682 89.6763 154.096 86.1183 146 84.46V63.32C163.365 65.837 179.242 74.5245 190.725 87.7918C202.208 101.059 208.528 118.019 208.528 135.565C208.528 153.111 202.208 170.071 190.725 183.338C179.242 196.605 163.365 205.293 146 207.81V141.58L135.56 135.56ZM146 249.8V228.8C168.946 226.237 190.143 215.306 205.537 198.097C220.931 180.888 229.441 158.609 229.441 135.52C229.441 112.431 220.931 90.1516 205.537 72.9427C190.143 55.7338 168.946 44.8029 146 42.24V21.34C174.507 23.9287 201.016 37.083 220.32 58.2191C239.624 79.3552 250.327 106.945 250.327 135.57C250.327 164.195 239.624 191.785 220.32 212.921C201.016 234.057 174.507 247.211 146 249.8V249.8Z" fill="#FFB41F"/>
<path d="M344.12 208.21V62.7002H411.48C435.38 62.7002 454.48 81.8202 454.48 104.48C454.48 127.76 435.35 146.89 411.48 146.89H369.07V208.21H344.12ZM409.4 124C421.66 124 429.56 117.35 429.56 104.46C429.56 92.2002 421.66 85.5402 409.4 85.5402H369.07V124H409.4Z" fill="black"/>
<path d="M473.64 62.7002H572V85.5602H498.58V124H560.33V146.87H498.58V185.33H572V208.19H473.64V62.7002Z" fill="black"/>
<path d="M596.71 208.21V62.7002H664.06C687.97 62.7002 707.06 81.8202 707.06 104.48C707.06 125.27 691.88 142.48 671.92 146.27L710.8 208.21H682.15L643.48 146.89H621.66V208.21H596.71ZM662 124C674.26 124 682.16 117.35 682.16 104.46C682.16 92.2002 674.26 85.5402 662 85.5402H621.66V124H662Z" fill="black"/>
<path d="M784.23 188.81C801.48 188.81 813.75 180.49 813.54 166.98C813.33 153.05 804.18 149.52 779.03 144.32C748.47 138.08 729.14 125.19 729.14 100.45C729.14 82.37 747.43 59.5 782.77 59.5C809.77 59.5 828.5 74.05 837.03 86.94L816.24 99.42C809.8 89.85 800.03 82.42 782.77 82.42C761.57 82.42 754.08 93.65 754.08 100.5C754.08 110.69 760.53 117.14 784.02 121.92C812.91 127.92 838.28 137.3 838.48 166.61C838.69 196.13 810.21 211.72 784.23 211.72C752.42 211.72 731.01 195.3 721.45 180.54L742.65 168C749.92 179.45 762.19 188.81 784.23 188.81Z" fill="black"/>
<path d="M862 62.7002H960.33V85.5602H886.92V124H948.67V146.87H886.92V185.33H960.31V208.19H862V62.7002Z" fill="black"/>
<path d="M986.3 208.21V62.7002H1083.59V85.5602H1011.24V124H1071.94V146.87H1011.24V208.19L986.3 208.21Z" fill="black"/>
<path d="M1095.86 135.46C1095.86 93.8801 1127.25 59.5801 1170.49 59.5801C1213.73 59.5801 1245.12 93.8801 1245.12 135.46C1245.12 177.04 1213.73 211.33 1170.49 211.33C1127.25 211.33 1095.86 177 1095.86 135.46ZM1170.49 188.46C1200.42 188.46 1220.17 167.05 1220.17 135.46C1220.17 103.87 1200.42 82.4601 1170.49 82.4601C1140.56 82.4601 1120.8 103.88 1120.8 135.46C1120.8 167.04 1140.55 188.46 1170.49 188.46V188.46Z" fill="black"/>
<path d="M1264 208.21V62.7002H1292.9L1359.63 168.92V62.7002H1384.58V208.21H1355.68L1289 102V208.21H1264Z" fill="black"/>
<path d="M1414.77 185.35H1444.91V85.5602H1414.77V62.7002H1500V85.5602H1469.86V185.35H1500V208.21H1414.77V185.35Z" fill="black"/>
</g>
<defs>
<clipPath id="clip0_9:1771">
<rect width="1500" height="271.13" fill="white"/>
</clipPath>
</defs>
</svg>
