<svg width="177" height="42" viewBox="0 0 177 42" fill="none" xmlns="http://www.w3.org/2000/svg">
<g clip-path="url(#clip0_811_5534)">
<path fill-rule="evenodd" clip-rule="evenodd" d="M59.5293 9.83398H53.7435L43.7797 20.2552V9.83398H38.6074V32.1675H43.7797V26.529L46.7995 23.4052L54.0026 32.1675H60.0793L50.216 19.7827L59.5293 9.83398Z" fill="white"/>
<path fill-rule="evenodd" clip-rule="evenodd" d="M67.5727 22.8487H78.0177V18.8325H67.5727V13.9815H79.4033V9.83398H62.4004V32.1675H79.8211V28.02H67.5727V22.8487Z" fill="white"/>
<path fill-rule="evenodd" clip-rule="evenodd" d="M98.1727 9.83398L92.1489 19.746L86.1516 9.83398H80.625L89.3354 24.2085V32.1675H94.5394V24.261L103.282 9.83398H98.1727Z" fill="white"/>
<path fill-rule="evenodd" clip-rule="evenodd" d="M119.74 22.8487H130.185V18.8325H119.74V13.9815H131.565V9.83398H114.562V32.1675H131.983V28.02H119.74V22.8487Z" fill="white"/>
<path fill-rule="evenodd" clip-rule="evenodd" d="M150.462 20.8746C149.69 20.4073 148.833 20.0346 147.892 19.7563C146.971 19.4781 146.035 19.2366 145.094 19.0213C144.174 18.8061 143.328 18.5961 142.555 18.3808C141.783 18.1656 141.164 17.8926 140.694 17.5513C140.223 17.1891 139.985 16.7218 139.985 16.1496C139.985 15.6613 140.123 15.2361 140.403 14.8738C140.683 14.4906 141.143 14.1808 141.783 13.9498C142.428 13.7136 143.253 13.5981 144.258 13.5981C145.263 13.5981 146.294 13.7451 147.347 14.0443C148.394 14.3226 149.446 14.7583 150.494 15.3516L152.101 11.4246C151.054 10.7631 149.843 10.2748 148.468 9.95456C147.098 9.61331 145.702 9.44531 144.29 9.44531C142.169 9.44531 140.403 9.76556 138.986 10.4008C137.595 11.0151 136.542 11.8603 135.834 12.9208C135.146 13.9656 134.802 15.1206 134.802 16.3963C134.802 17.5881 135.04 18.5646 135.511 19.3311C136.003 20.0976 136.637 20.7118 137.41 21.1791C138.182 21.6463 139.028 22.0296 139.948 22.3288C140.889 22.6281 141.82 22.8801 142.746 23.0953C143.687 23.2843 144.544 23.4996 145.316 23.7358C146.088 23.9511 146.707 24.2346 147.183 24.5968C147.654 24.9381 147.892 25.4053 147.892 25.9986C147.892 26.4658 147.744 26.8806 147.442 27.2428C147.141 27.6051 146.67 27.8938 146.03 28.1038C145.411 28.2928 144.586 28.3926 143.555 28.3926C142.206 28.3926 140.868 28.1773 139.536 27.7521C138.229 27.3058 137.092 26.7441 136.13 26.0616L134.363 29.9518C135.368 30.7183 136.701 31.3431 138.351 31.8366C140.001 32.3038 141.725 32.5401 143.528 32.5401C145.67 32.5401 147.437 32.2198 148.833 31.5846C150.245 30.9441 151.308 30.1041 152.017 29.0646C152.725 28.0198 153.074 26.8753 153.074 25.6206C153.074 24.4498 152.826 23.4838 152.334 22.7173C151.863 21.9508 151.239 21.3366 150.472 20.8693L150.462 20.8746Z" fill="white"/>
<path fill-rule="evenodd" clip-rule="evenodd" d="M171.828 27.2001C171.479 27.3838 171.124 27.5466 170.765 27.6673C169.802 27.9876 168.803 28.1451 167.777 28.1451C166.751 28.1451 165.719 27.9771 164.82 27.6358C163.942 27.2946 163.17 26.8063 162.504 26.1658C161.864 25.5043 161.356 24.7431 160.991 23.8663C160.648 22.9948 160.478 22.0393 160.478 20.9946C160.478 19.9498 160.653 18.9628 160.991 18.0913C161.356 17.2198 161.859 16.4638 162.504 15.8286C163.17 15.1881 163.953 14.6998 164.852 14.3586C165.751 14.0173 166.751 13.8493 167.84 13.8493C168.93 13.8493 170.024 14.0646 170.987 14.4898C171.949 14.8941 172.843 15.5241 173.658 16.3746L177 13.3138C175.905 12.0591 174.557 11.1036 172.949 10.4421C171.362 9.78058 169.575 9.45508 167.581 9.45508C165.783 9.45508 164.133 9.74383 162.631 10.3161C161.129 10.8673 159.823 11.6653 158.712 12.7101C157.596 13.7548 156.729 14.9728 156.11 16.3798C155.512 17.7816 155.211 19.3251 155.211 21.0051C155.211 22.6851 155.512 24.2286 156.11 25.6303C156.734 27.0321 157.591 28.2553 158.68 29.3001C159.796 30.3448 161.092 31.1481 162.567 31.7256C164.069 32.2768 165.704 32.5551 167.486 32.5551C169.094 32.5551 170.701 32.3083 172.309 31.8201C173.938 31.3318 175.361 30.6283 176.582 29.7148V20.6533H171.828V27.2053V27.2001Z" fill="white"/>
<path d="M10.2755 0H6.64746V23.1H10.2755V0Z" fill="white"/>
<path fill-rule="evenodd" clip-rule="evenodd" d="M8.46181 25.1992C3.78666 25.1992 0 28.9582 0 33.5992C0 38.2402 3.78666 41.9992 8.46181 41.9992C13.137 41.9992 16.9236 38.2402 16.9236 33.5992C16.9236 28.9582 13.137 25.1992 8.46181 25.1992ZM8.46181 38.2665C5.86509 38.2665 3.76022 36.177 3.76022 33.5992C3.76022 31.0215 5.86509 28.932 8.46181 28.932C11.0585 28.932 13.1634 31.0215 13.1634 33.5992C13.1634 36.177 11.0585 38.2665 8.46181 38.2665Z" fill="white"/>
<path d="M23.5713 0C18.3938 0.38325 14.2634 4.76175 13.8984 10.2008C19.2347 10.2008 23.5449 5.64375 23.5713 0Z" fill="#FF6949"/>
<path d="M29.616 10.9884C26.5063 8.33719 21.847 8.33719 18.7373 10.9884C21.7307 13.9389 26.6015 13.9389 29.616 10.9884Z" fill="#FFB549"/>
<path d="M13.9043 12.002C14.2216 17.1417 17.8338 21.2367 22.3661 21.6042C22.3661 16.3122 18.5953 12.023 13.9043 12.002Z" fill="#23C983"/>
</g>
<defs>
<clipPath id="clip0_811_5534">
<rect width="177" height="42" fill="white"/>
</clipPath>
</defs>
</svg>
