<svg width="600" height="156" viewBox="0 0 600 156" fill="none" xmlns="http://www.w3.org/2000/svg">
<g id="workiva-carbon-logo-tag-steel">
<g id="wk-c-logo-dark">
<g id="wk-carbon-light">
<g id="Group">
<g id="Group_2">
<g id="Group_3">
<path id="Vector" d="M76.4716 0.846191L56.1655 62.8286L47.6086 34.0542H33.8643L49.6702 79.4548H64.3013L91.9229 0.846191L76.4716 0.846191Z" fill="#333333"/>
<path id="Vector_2" d="M24.1353 62.8281L14.4256 34.0537H0.503906L16.3099 79.4543H32.3154L38.8328 60.0571L31.7833 39.8618L24.1353 62.8281Z" fill="#333333"/>
</g>
<path id="Vector_3" d="M191.238 54.5358L213.517 34.0523L194.962 34.0523L180.664 47.4863V13.5688L167.54 13.5688V79.4529H180.664V61.2971L198.398 79.4529L216.155 79.4529L191.238 54.5358Z" fill="#333333"/>
<path id="Vector_4" d="M162.95 47.5941C162.95 47.5941 161.177 46.3749 156.655 46.3749C153.329 46.3749 150.492 48.3257 149.384 49.8109C148.275 51.2741 147.078 54.2224 147.078 59.299V79.4721H133.312V34.0493H147.078L146.989 40.5003H147.167C149.738 35.5346 153.529 33.1626 158.406 33.1626C161.443 33.1626 162.95 34.0715 162.95 34.0715V47.5941V47.5941Z" fill="#333333"/>
<g id="Group_4">
<path id="Vector_5" d="M103.807 80.6546C89.3752 80.6546 78.4463 71.6764 78.4463 56.9567C78.4463 42.237 89.3752 33.1702 103.807 33.1702C118.238 33.1702 129.079 42.237 129.079 56.9567C129.079 71.6764 118.238 80.6546 103.807 80.6546ZM103.807 44.8307C97.245 44.8307 93.432 49.9294 93.432 56.6685C93.432 63.4298 97.2228 68.5064 103.807 68.5064C110.28 68.5064 114.182 63.4077 114.182 56.6685C114.182 49.9294 110.28 44.8307 103.807 44.8307Z" fill="#333333"/>
</g>
<path id="Vector_6" d="M331.604 79.4763H317.438L317.15 74.821C315.199 76.7718 311.497 80.6512 304.093 80.6512C296.046 80.6512 287.533 76.3062 287.533 66.131C287.533 55.9558 296.888 52.5197 305.29 52.165L316.773 51.6995V50.6797C316.773 45.8692 313.359 43.3642 307.418 43.3642C301.588 43.3642 295.758 45.9579 293.452 47.4432L289.573 37.8221C293.452 35.8713 300.59 33.189 309.103 33.189C317.616 33.189 322.515 35.1398 326.128 38.465C329.653 41.7903 331.582 46.2461 331.582 53.9163V79.4763H331.604ZM316.906 59.547L309.591 60.0126C305.046 60.1899 302.364 62.1407 302.364 65.5546C302.364 69.0794 305.223 71.2075 309.302 71.2075C313.271 71.2075 315.975 68.6139 316.884 67.0399V59.547H316.906Z" fill="#333333"/>
<path id="Vector_7" d="M287.558 34.0459L268.848 79.4686H255.038L236.438 34.0459H251.823L262.131 62.7759L272.351 34.0459H287.558V34.0459Z" fill="#333333"/>
<path id="Vector_8" d="M232.514 79.4465H217.772V34.0459H232.514V79.4465Z" fill="#333333"/>
<path id="Vector_9" d="M217.772 30.2172V13.5688L235.84 13.5688L217.772 30.2172Z" fill="#333333"/>
</g>
<g id="Group_5">
<path id="Vector_10" d="M334.195 33.9412C332.422 33.9412 331.025 32.5668 331.025 30.7711C331.025 28.9755 332.422 27.6011 334.195 27.6011C335.991 27.6011 337.366 28.9755 337.366 30.7711C337.366 32.5446 335.969 33.9412 334.195 33.9412ZM334.195 28.0666C332.688 28.0666 331.491 29.2415 331.491 30.7711C331.491 32.2786 332.666 33.4757 334.195 33.4757C335.725 33.4757 336.9 32.3007 336.9 30.7711C336.878 29.2415 335.725 28.0666 334.195 28.0666ZM335.769 32.6111H334.861L334.085 31.148H333.708V32.6111H332.954V28.8868H334.262C335.082 28.8868 335.592 29.308 335.592 29.9952C335.592 30.7046 335.127 30.9706 334.838 31.0372L335.769 32.6111ZM334.151 29.5297H333.73V30.5495H334.151C334.506 30.5495 334.816 30.4608 334.816 30.0396C334.816 29.6184 334.506 29.5297 334.151 29.5297Z" fill="#333333"/>
</g>
</g>
<rect id="Rectangle 2021629" x="359.487" y="13.2178" width="3.80899" height="85.7022" rx="1.90449" fill="#333333"/>
<path id="Union" fill-rule="evenodd" clip-rule="evenodd" d="M494.997 79.3047V32.6223H507.981V49.4403C510.269 46.9053 513.175 45.9778 516.452 45.9778C522.883 45.9778 528.633 50.306 528.633 62.3012C528.633 75.1002 523.316 80.0466 515.154 80.0466C511.011 80.0466 508.352 78.3154 506.621 76.1513L506.25 76.2131L505.694 79.3047H494.997ZM507.981 69.0407C508.847 69.7209 510.022 70.1537 511.073 70.1537C513.299 70.1537 514.845 68.4843 514.845 62.8576C514.845 59.8898 514.536 55.9944 510.949 55.9944C510.022 55.9944 508.847 56.4272 507.981 57.1074V69.0407ZM586.765 79.3051H599.811V56.8605C599.811 49.3789 596.473 45.9782 589.176 45.9782C584.786 45.9782 581.633 47.7095 579.964 49.6881L579.345 46.6584H567.783V79.3051H580.829V57.2315C581.509 56.4895 582.746 55.933 584.106 55.933C585.59 55.933 586.765 56.6132 586.765 59.2101V79.3051ZM530.916 63.1678C530.916 73.0607 535.306 80.0476 547.673 80.0476C560.162 80.0476 565.48 73.1844 565.48 62.5495C565.48 52.9657 560.904 45.9788 548.538 45.9788C536.296 45.9788 530.916 52.7802 530.916 63.1678ZM551.877 62.8586C551.877 69.4745 550.826 71.3913 548.167 71.3913C545.261 71.3913 544.581 69.3509 544.581 62.9205C544.581 56.49 545.632 54.8206 548.353 54.8206C551.135 54.8206 551.877 56.7992 551.877 62.8586ZM482.159 60.6327C484.941 58.7159 488.589 57.9121 492.917 58.0976V46.1024C492.237 46.0406 491.557 45.9787 490.939 45.9787C485.498 45.9787 482.715 49.5649 481.231 52.2237L480.304 46.6589H469.113V79.3056H482.159V60.6327ZM462.642 69.7213C462.642 71.4526 462.951 72.1945 464.559 72.1945C465.115 72.1945 465.672 72.0709 466.475 71.8236L466.723 78.625C465.486 79.2433 461.591 80.1089 459.241 80.1089C454.975 80.1089 451.945 78.9341 450.77 75.4098C448.916 78.1921 446.319 80.0471 441.867 80.0471C433.829 80.0471 432.097 74.7914 432.097 71.3907C432.097 61.7451 441.434 60.4467 449.967 60.1375V58.6536C449.967 56.4895 449.967 54.5727 447.308 54.5727C445.206 54.5727 444.464 55.6239 443.845 58.3444L433.149 56.4895C434.138 50.3064 437.971 45.9782 448.174 45.9782C457.572 45.9782 462.642 49.6263 462.642 57.7879V69.7213ZM450.028 66.5061C448.545 66.5061 445.206 66.7534 445.206 69.3503C445.206 70.4015 445.762 71.5762 447.37 71.5762C448.668 71.5762 449.596 71.1434 450.028 70.7724V66.5061ZM389.568 57.232C389.568 71.515 395.69 80.0476 411.209 80.0476C419.495 80.0476 429.387 76.2141 430.562 64.8372L418.691 62.9823C418.011 66.3212 416.898 69.66 411.766 69.66C406.077 69.66 403.48 66.0738 403.48 56.7374C403.48 47.7719 406.448 44.1239 411.704 44.1239C415.908 44.1239 418.32 46.0406 418.443 52.0382L430.562 50.8634C430.253 38.8064 422.586 33.7363 411.951 33.7363C396.617 33.7363 389.568 43.8147 389.568 57.232Z" fill="#333333"/>
</g>
</g>
<g id="formerly Sustain.Life">
<path id="formerly Sustain Life" fill-rule="evenodd" clip-rule="evenodd" d="M490.808 142.003H484.768V121.163H490.808V142.003ZM491.448 114.763C491.448 117.083 490.088 118.443 487.808 118.443C485.488 118.443 484.168 117.083 484.168 114.763C484.168 112.443 485.488 111.123 487.808 111.123C490.088 111.123 491.448 112.443 491.448 114.763ZM560.804 142.003H554.764V121.163H560.804V142.003ZM561.444 114.763C561.444 117.083 560.084 118.443 557.804 118.443C555.484 118.443 554.164 117.083 554.164 114.763C554.164 112.443 555.484 111.123 557.804 111.123C560.084 111.123 561.444 112.443 561.444 114.763ZM566.907 125.563V142.003H572.947V125.563H578.467V121.163H572.947V119.323C572.947 116.443 574.267 115.883 576.147 115.883C577.107 115.883 578.147 116.123 578.947 116.403L579.187 112.123C578.507 111.803 576.747 111.363 574.587 111.363C569.987 111.363 566.907 113.603 566.907 118.763V121.163H564.107V125.563H566.907ZM580.09 131.643C580.09 137.283 582.57 142.483 590.29 142.483C595.25 142.483 598.37 139.963 599.13 136.083L594.05 134.843C593.65 136.603 592.81 137.803 590.65 137.803C588.01 137.803 586.57 136.523 586.45 133.083H599.13C599.21 132.363 599.25 131.043 599.25 130.363C599.25 124.563 596.61 120.723 590.29 120.723C584.69 120.723 580.09 124.123 580.09 131.643ZM589.97 125.083C591.93 125.083 593.01 126.243 593.01 129.243H586.53C586.57 126.203 588.25 125.083 589.97 125.083ZM550.349 136.803H537.949V113.043H531.789V142.003H550.349V136.803ZM526.751 138.963C526.751 141.243 525.511 142.483 523.031 142.483C520.511 142.483 519.311 141.323 519.311 138.963C519.311 136.643 520.511 135.403 523.031 135.403C525.511 135.403 526.751 136.643 526.751 138.963ZM509.03 142.003H515.07V127.763C515.07 123.003 513.07 120.723 508.47 120.723C505.63 120.723 503.35 121.843 501.83 123.243L501.51 121.163H496.15V142.003H502.19V127.243C502.99 126.523 504.63 125.603 506.27 125.603C508.15 125.603 509.03 126.563 509.03 128.803V142.003ZM479.743 138.403C478.703 138.403 478.503 137.923 478.503 136.803V128.083C478.503 122.883 475.703 120.723 470.143 120.723C464.463 120.723 461.983 123.043 461.343 126.963L466.463 127.963C466.863 125.923 467.623 125.083 469.623 125.083C472.263 125.083 472.583 126.523 472.583 128.883V129.643C467.223 129.603 460.623 130.563 460.623 136.923C460.623 139.003 461.623 142.483 466.823 142.483C469.703 142.483 471.703 141.523 473.023 139.803C473.463 141.763 474.903 142.443 477.303 142.443C478.583 142.443 480.343 142.043 481.143 141.643L480.983 138.163C480.463 138.323 480.103 138.403 479.743 138.403ZM466.703 135.923C466.703 133.803 468.783 133.243 471.663 133.163H472.623V136.843C471.983 137.483 470.583 138.203 469.143 138.203C467.223 138.203 466.703 137.123 466.703 135.923ZM458.411 141.003C457.371 141.683 454.931 142.483 452.291 142.483C447.931 142.483 445.651 140.483 445.651 135.723V125.563H442.531V121.163H445.651V115.003L451.691 114.203V121.163H457.211V125.563H451.691V134.883C451.691 136.723 452.211 137.683 454.131 137.683C455.331 137.683 456.771 137.203 457.571 136.723L458.411 141.003ZM422.684 136.963C423.364 140.443 426.204 142.483 431.524 142.483C436.684 142.483 440.724 140.203 440.724 135.483C440.724 130.603 436.844 129.803 433.404 129.163C430.804 128.683 429.124 128.363 429.124 126.723C429.124 125.563 429.964 124.723 431.964 124.723C434.164 124.723 435.044 125.963 435.524 127.763L440.364 126.323C439.364 122.803 436.764 120.723 432.044 120.723C427.364 120.723 423.364 122.923 423.364 127.483C423.364 132.515 427.484 133.308 430.788 133.945L430.884 133.963C433.244 134.403 434.884 134.843 434.884 136.443C434.884 137.803 433.764 138.483 431.724 138.483C428.884 138.483 428.044 136.923 427.564 135.283L422.684 136.963ZM400.078 121.163H406.118V134.323C406.118 136.563 406.838 137.563 408.758 137.563C410.318 137.563 411.918 136.643 412.718 135.923V121.163H418.758V142.003H413.558L413.118 139.763C411.638 141.443 409.318 142.443 406.478 142.443C402.198 142.443 400.078 140.123 400.078 135.523V121.163ZM380.929 120.363C380.929 118.523 382.289 117.283 385.249 117.283C388.649 117.283 389.769 118.923 390.009 121.643L395.649 121.003C395.209 114.123 390.489 112.523 385.329 112.523C379.489 112.523 374.769 115.603 374.769 121.243C374.769 127.523 379.706 128.826 383.928 129.942L384.009 129.963C387.129 130.763 389.849 131.523 389.849 134.043C389.849 136.723 387.609 137.603 385.049 137.603C380.809 137.603 379.769 135.243 379.289 132.443L373.689 133.283C374.209 140.803 379.689 142.483 384.889 142.483C390.649 142.483 395.969 139.883 395.969 133.323C395.969 127.283 391.049 125.803 386.849 124.643C383.689 123.763 380.929 122.963 380.929 120.363ZM342.037 121.163H348.557L352.917 135.683H353.037L357.237 121.163H363.437L355.157 144.043C353.397 148.963 351.557 150.923 347.317 150.923C345.677 150.923 343.637 150.483 342.757 150.043L343.197 145.683C344.317 146.043 345.477 146.323 346.357 146.323C347.757 146.323 348.677 145.683 349.317 144.083L349.957 142.443L342.037 121.163ZM333.094 142.003H339.134V111.803H333.094V142.003ZM329.671 126.643C326.951 126.403 324.271 127.123 322.511 128.523V142.003H316.471V121.163H321.631L322.071 124.443C323.471 122.403 325.431 120.723 328.631 120.723C328.951 120.723 329.311 120.723 329.671 120.763V126.643ZM292.875 131.643C292.875 137.283 295.355 142.483 303.075 142.483C308.035 142.483 311.155 139.963 311.915 136.083L306.835 134.843C306.435 136.603 305.595 137.803 303.435 137.803C300.795 137.803 299.355 136.523 299.235 133.083H311.915C311.995 132.363 312.035 131.043 312.035 130.363C312.035 124.563 309.395 120.723 303.075 120.723C297.475 120.723 292.875 124.123 292.875 131.643ZM302.755 125.083C304.715 125.083 305.795 126.243 305.795 129.243H299.315C299.355 126.203 301.035 125.083 302.755 125.083ZM265.294 142.003H259.254V121.163H264.374L264.654 123.123C266.294 121.763 268.294 120.723 270.974 120.723C273.454 120.723 275.334 121.443 276.294 123.323C277.774 121.803 279.974 120.723 282.774 120.723C286.934 120.723 289.014 123.003 289.014 127.643V142.003H282.974V128.603C282.974 126.643 282.374 125.603 280.614 125.603C279.494 125.603 277.934 126.243 277.174 127.043C277.174 127.119 277.183 127.194 277.192 127.274C277.203 127.363 277.214 127.458 277.214 127.563V142.003H271.174V128.603C271.174 126.643 270.574 125.603 268.854 125.603C267.614 125.603 266.094 126.283 265.294 127.083V142.003ZM248.792 128.523C250.552 127.123 253.232 126.403 255.952 126.643V120.763C255.592 120.723 255.232 120.723 254.912 120.723C251.712 120.723 249.752 122.403 248.352 124.443L247.912 121.163H242.752V142.003H248.792V128.523ZM228.115 142.483C220.555 142.483 217.955 137.923 217.955 131.683C217.955 125.003 221.435 120.723 228.675 120.723C235.915 120.723 238.715 125.083 238.715 131.243C238.715 138.043 235.595 142.483 228.115 142.483ZM228.395 138.003C231.035 138.003 232.435 136.323 232.435 131.443C232.435 126.883 231.195 125.283 228.515 125.283C225.795 125.283 224.275 127.003 224.275 131.523C224.275 136.163 225.435 138.003 228.395 138.003ZM204.773 125.563V142.003H210.813V125.563H216.333V121.163H210.813V119.323C210.813 116.443 212.133 115.883 214.013 115.883C214.973 115.883 216.013 116.123 216.813 116.403L217.053 112.123C216.373 111.803 214.613 111.363 212.453 111.363C207.853 111.363 204.773 113.603 204.773 118.763V121.163H201.973V125.563H204.773Z" fill="#333333"/>
</g>
</g>
</svg>
