<svg width="300" height="98" viewBox="0 0 300 98" fill="none" xmlns="http://www.w3.org/2000/svg">
<g clip-path="url(#clip0_3703_9987)">
<path fill-rule="evenodd" clip-rule="evenodd" d="M88.8594 95.86H90.9394V84.14H88.8594V95.86ZM88.8594 81.96H90.9394V79.76H88.8594V81.96ZM94.0594 95.86H95.9594V88.96C95.9594 88.32 95.9594 87.9 96.2794 87.5C96.4794 87.18 96.6794 86.76 97.0994 86.44C97.4394 86.12 97.8194 85.88 98.2594 85.72L99.6194 85.52C100.339 85.52 100.979 85.72 101.399 86.12C101.799 86.66 102.019 87.38 102.019 88.44V95.84H104.019V88.12C104.019 86.66 103.579 85.6 102.959 84.98C102.339 84.14 101.399 83.84 100.039 83.84C99.2446 83.8576 98.4642 84.0558 97.7573 84.4197C97.0504 84.7835 96.4356 85.3034 95.9594 85.94V84.14H93.9594V95.86H94.0794H94.0594ZM106.299 92.5C106.299 93.14 106.499 93.76 106.719 94.3C107.039 94.7 107.459 95.12 107.879 95.34C108.399 95.74 108.919 95.94 109.539 96.06C110.85 96.3504 112.209 96.3504 113.519 96.06C114.139 95.86 114.559 95.54 115.079 95.22C115.759 94.62 116.159 93.74 116.139 92.82C116.139 91.78 115.939 90.94 115.299 90.32C114.779 89.8 113.719 89.38 112.359 89.26L110.699 88.96L109.659 88.64C109.388 88.5579 109.137 88.4219 108.919 88.24C108.746 88.1354 108.607 87.9825 108.519 87.8V86.44L109.019 85.92C109.219 85.72 109.539 85.6 109.959 85.52C110.419 85.42 110.859 85.38 111.319 85.4H112.479L113.319 85.8L113.839 86.44L114.239 87.28L116.039 86.96L115.599 85.72L114.779 84.66L113.319 84.06C112.01 83.7048 110.629 83.7048 109.319 84.06L107.879 84.78C107.019 85.32 106.499 86.26 106.519 87.28C106.519 87.8 106.619 88.32 106.819 88.64L107.559 89.68L108.919 90.32L110.599 90.62L113.199 91.14L113.839 91.56L114.139 92.2V92.82C114.139 93.34 114.039 93.86 113.619 94.18C113.219 94.5 112.479 94.7 111.539 94.7C110.479 94.7 109.739 94.5 109.239 94.18C108.599 93.86 108.299 93.24 108.179 92.5H106.299ZM118.639 91.98C118.639 93.34 118.959 94.5 119.579 95.12C120.199 95.86 121.139 96.16 122.399 96.16C123.239 96.16 123.979 96.16 124.599 95.76C125.219 95.44 125.859 94.8 126.479 94.08V95.86H128.359V84.14H126.479V91.14C126.479 91.68 126.379 92.2 126.159 92.5L125.339 93.56C124.599 94.28 123.759 94.6 122.939 94.6C122.099 94.6 121.559 94.28 121.139 93.86C120.839 93.46 120.619 92.62 120.619 91.56V84.26H118.639V91.98ZM131.499 95.86H133.499V79.76H131.499V95.86ZM143.839 95.86H145.719V88.2C145.719 87.58 145.719 86.94 145.519 86.32C145.399 85.8 145.079 85.28 144.779 84.96C144.359 84.56 143.939 84.34 143.319 84.12C142.779 83.92 142.059 83.82 141.219 83.82C140.059 83.74 138.899 84 137.879 84.54C137.139 85.06 136.619 85.8 136.419 86.84L138.179 87.04C138.299 86.54 138.599 86 139.019 85.8C139.439 85.48 140.179 85.38 141.119 85.38C142.059 85.38 142.779 85.58 143.199 86C143.619 86.42 143.839 87.06 143.839 88.1V88.62H141.739C141.019 88.62 140.279 88.72 139.659 88.94C138.919 88.94 138.299 89.24 137.659 89.46C136.459 90.04 135.739 91.26 135.779 92.6C135.779 93.22 135.879 93.64 136.099 94.16C136.299 94.58 136.619 95 136.939 95.2C137.239 95.52 137.659 95.84 138.179 95.94L139.859 96.14C140.799 96.14 141.639 95.94 142.259 95.62C142.899 95.22 143.419 94.78 143.839 94.26V95.84V95.86ZM143.839 91.36C143.839 92.4 143.519 93.14 142.779 93.66C142.159 94.28 141.319 94.6 140.059 94.6C139.339 94.6 138.719 94.4 138.399 93.98C137.979 93.66 137.779 93.24 137.779 92.62L137.979 91.56L138.719 90.84L139.959 90.32L141.959 90.12H143.839V91.36ZM149.479 92.1V93.76L149.999 95.02L151.039 95.86C151.459 96.06 151.979 96.16 152.619 96.16C153.399 96.16 154.179 96.02 154.919 95.76L154.499 94.28C153.979 94.46 153.459 94.52 152.919 94.48C152.399 94.48 152.099 94.28 151.879 93.98C151.541 93.6081 151.356 93.1226 151.359 92.62V85.72H154.499V84.14H151.359V81.02H149.479V84.14H147.599V85.72H149.479V92.1ZM156.679 95.86H158.679V84.14H156.579V95.86H156.679ZM156.579 81.96H158.679V79.76H156.579V81.96ZM169.339 95.86C170.045 95.5579 170.674 95.1009 171.18 94.5227C171.685 93.9445 172.054 93.2601 172.259 92.52C172.579 91.78 172.679 90.94 172.679 90C172.679 88.96 172.579 88.12 172.279 87.4C172.059 86.66 171.639 86.02 171.219 85.5C170.743 84.94 170.13 84.5128 169.439 84.26C168.719 83.94 167.879 83.84 167.039 83.84C166.199 83.84 165.359 83.94 164.739 84.24C163.999 84.56 163.379 84.98 162.859 85.5C162.102 86.5034 161.601 87.6761 161.399 88.9166C161.197 90.1571 161.3 91.4282 161.699 92.62C162.159 94.06 163.239 95.22 164.639 95.74C165.359 96.06 166.139 96.24 166.939 96.28C167.879 96.28 168.599 96.08 169.339 95.86ZM165.359 94.28C164.959 94.08 164.519 93.76 164.319 93.24C163.991 92.8364 163.74 92.3753 163.579 91.88C163.274 90.6452 163.274 89.3548 163.579 88.12L164.219 86.76C164.839 85.84 165.919 85.32 167.019 85.4C167.659 85.4 168.079 85.5 168.619 85.8C169.119 86.02 169.439 86.34 169.659 86.76C170.059 87.08 170.259 87.6 170.379 88.12L170.579 90C170.579 90.62 170.579 91.26 170.379 91.88C170.279 92.4 170.059 92.9 169.759 93.34C169.439 93.76 169.119 94.08 168.719 94.28C168.179 94.48 167.659 94.6 167.039 94.6C166.419 94.6 165.779 94.6 165.359 94.28ZM175.299 95.86H177.379V88.96C177.379 88.32 177.379 87.9 177.579 87.5L178.439 86.44C178.759 86.12 179.139 85.88 179.579 85.72L180.939 85.52C181.779 85.52 182.399 85.72 182.719 86.12C183.119 86.66 183.339 87.38 183.339 88.44V95.84H185.339V88.12C185.339 86.66 185.019 85.6 184.279 84.98C183.659 84.14 182.719 83.84 181.359 83.84C180.619 83.84 179.899 83.94 179.259 84.36C178.479 84.7 177.799 85.24 177.279 85.92V84.14H175.279V95.86H175.299ZM192.639 92.5C192.639 93.14 192.839 93.76 193.179 94.3C193.479 94.7 193.779 95.12 194.219 95.34C194.739 95.74 195.259 95.94 195.879 96.06C197.279 96.38 198.679 96.38 200.079 96.06L201.419 95.22C202.139 94.62 202.579 93.76 202.579 92.82C202.579 91.78 202.379 90.94 201.739 90.32C200.901 89.6692 199.88 89.2984 198.819 89.26L197.019 88.96C196.671 88.8824 196.33 88.7754 195.999 88.64C195.728 88.5579 195.477 88.4219 195.259 88.24C195.116 88.1237 195.006 87.972 194.939 87.8V86.44L195.479 85.92L196.299 85.52C196.759 85.42 197.199 85.38 197.659 85.4H198.919L199.759 85.8L200.279 86.44L200.599 87.28L202.479 86.96L201.959 85.72C201.759 85.4 201.539 84.98 201.119 84.66L199.759 84.06C198.456 83.7084 197.083 83.7084 195.779 84.06L194.319 84.78C193.459 85.32 192.939 86.26 192.959 87.28C192.959 87.8 192.959 88.32 193.279 88.64C193.379 89.06 193.679 89.38 193.999 89.68L195.259 90.32L197.039 90.62L198.499 90.94L199.539 91.14L200.279 91.56L200.479 92.2L200.599 92.82C200.599 93.34 200.399 93.86 199.959 94.18C199.559 94.5 198.919 94.7 197.879 94.7C196.819 94.7 196.199 94.5 195.579 94.18C195.059 93.86 194.739 93.24 194.519 92.5H192.639ZM212.499 95.86C213.139 95.54 213.759 95.12 214.299 94.6C215.259 93.26 215.819 91.66 215.859 90C215.859 88.96 215.659 88.12 215.439 87.4C215.181 86.6966 214.787 86.0509 214.279 85.5C213.803 84.94 213.19 84.5128 212.499 84.26C211.738 83.9517 210.92 83.8085 210.099 83.84C209.259 83.84 208.539 83.94 207.799 84.24C207.079 84.56 206.439 84.98 206.019 85.5C205.499 86.02 205.079 86.76 204.879 87.5C204.559 88.22 204.459 89.16 204.459 90.1C204.459 91.04 204.459 91.9 204.779 92.62C205.079 93.44 205.399 94.08 205.819 94.6C206.439 95.12 206.959 95.54 207.699 95.86C208.459 96.14 209.299 96.3 210.099 96.26C210.939 96.26 211.779 96.06 212.399 95.86H212.499ZM208.439 94.28C208.019 94.08 207.599 93.76 207.379 93.24C207.099 92.84 206.879 92.36 206.759 91.88C206.459 90.6447 206.459 89.3554 206.759 88.12C206.759 87.6 207.079 87.08 207.379 86.76C207.979 85.88 209.019 85.36 210.099 85.4C210.739 85.4 211.259 85.5 211.679 85.8C212.199 86.02 212.499 86.34 212.819 86.76C213.139 87.08 213.339 87.6 213.439 88.12C213.639 88.74 213.639 89.38 213.639 90C213.639 90.62 213.639 91.26 213.439 91.88C213.339 92.4 213.119 92.9 212.839 93.34C212.539 93.74 212.199 94.06 211.779 94.28C211.259 94.48 210.739 94.6 210.099 94.6C209.479 94.6 208.959 94.6 208.439 94.28ZM218.459 95.86H220.459V79.76H218.459V95.86ZM223.479 91.98C223.479 93.34 223.799 94.5 224.319 95.12C224.939 95.86 225.879 96.16 227.239 96.16C227.979 96.16 228.719 96.16 229.339 95.76C230.059 95.44 230.699 94.8 231.219 94.08V95.86H233.219V84.14H231.219V91.14C231.219 91.68 231.219 92.2 230.899 92.5C230.699 92.92 230.499 93.24 230.059 93.56C229.339 94.28 228.599 94.6 227.659 94.6C226.939 94.6 226.299 94.28 225.999 93.86C225.579 93.46 225.479 92.62 225.479 91.56V84.26H223.379V91.98H223.479ZM236.959 91.98V93.78L237.499 95.02L238.539 95.86C238.939 96.06 239.479 96.16 240.099 96.16C240.899 96.16 241.659 96.02 242.399 95.76L241.999 94.28C241.484 94.4494 240.941 94.5173 240.399 94.48C239.899 94.48 239.599 94.28 239.379 93.98C239.041 93.6081 238.856 93.1226 238.859 92.62V85.72H241.979V84.14H238.859V81.02H236.959V84.14H235.079V85.72H236.959V91.98ZM244.179 95.86H246.179V84.14H244.079V95.86H244.179ZM244.179 81.96H246.279V79.76H244.179V81.96ZM256.819 95.86C257.525 95.5579 258.154 95.1009 258.66 94.5227C259.165 93.9445 259.534 93.2601 259.739 92.52C260.059 91.78 260.179 90.94 260.179 90C260.179 88.96 260.059 88.12 259.759 87.4C259.559 86.66 259.119 86.02 258.719 85.5C258.237 84.9372 257.617 84.5098 256.919 84.26C256.199 83.94 255.359 83.84 254.519 83.84C253.699 83.84 252.859 83.94 252.219 84.24C251.499 84.56 250.879 84.98 250.339 85.5C249.586 86.5052 249.088 87.6787 248.89 88.9191C248.691 90.1596 248.797 91.4298 249.199 92.62C249.519 93.44 249.819 94.08 250.239 94.6C250.759 95.12 251.399 95.54 252.119 95.86C252.859 96.14 253.639 96.26 254.419 96.26C255.359 96.26 256.099 96.06 256.819 95.86ZM252.859 94.28C252.439 94.08 252.019 93.76 251.819 93.24C251.491 92.8364 251.24 92.3753 251.079 91.88C250.774 90.6452 250.774 89.3548 251.079 88.12C251.279 87.6 251.479 87.08 251.819 86.76C252.419 85.88 253.459 85.36 254.519 85.4C255.159 85.4 255.579 85.5 256.099 85.8C256.619 86.02 256.939 86.34 257.239 86.76C257.559 87.08 257.759 87.6 257.879 88.12L258.079 90C258.079 90.62 258.079 91.26 257.879 91.88C257.759 92.4 257.539 92.9 257.239 93.34C256.979 93.74 256.619 94.06 256.199 94.28C255.679 94.48 255.159 94.6 254.519 94.6C253.919 94.6 253.279 94.6 252.859 94.28ZM262.779 95.86H264.879V88.96C264.879 88.32 264.879 87.9 265.079 87.5L265.919 86.44C266.279 86.1 266.719 85.84 267.179 85.72L268.439 85.52C269.259 85.52 269.899 85.72 270.199 86.12C270.619 86.66 270.839 87.38 270.839 88.44V95.84H272.839V88.12C272.839 86.66 272.499 85.6 271.779 84.98C271.259 84.14 270.199 83.84 268.859 83.84C268.119 83.84 267.379 83.94 266.759 84.36C265.959 84.7 265.299 85.24 264.759 85.92V84.14H262.779V95.86ZM275.119 92.5C275.119 93.14 275.319 93.76 275.639 94.3C275.959 94.7 276.279 95.12 276.679 95.34C277.219 95.74 277.739 95.94 278.359 96.06C279.699 96.38 281.099 96.38 282.439 96.06L283.899 95.22C284.639 94.64 285.059 93.76 285.059 92.82C285.059 91.78 284.739 90.94 284.219 90.32C283.336 89.668 282.276 89.2985 281.179 89.26L279.519 88.96L278.459 88.64C278.195 88.5555 277.951 88.4196 277.739 88.24C277.596 88.1237 277.486 87.972 277.419 87.8L277.319 87.08L277.419 86.44L277.939 85.92L278.779 85.52C279.219 85.42 279.679 85.38 280.139 85.4H281.399L282.119 85.8L282.759 86.44L283.059 87.28L284.859 86.96C284.859 86.56 284.639 86.14 284.419 85.72L283.579 84.66L282.219 84.06C280.922 83.712 279.556 83.712 278.259 84.06L276.799 84.78C276.379 84.98 275.959 85.4 275.739 85.82C275.539 86.22 275.439 86.76 275.439 87.28C275.439 87.8 275.439 88.32 275.639 88.64C275.839 89.06 276.059 89.38 276.479 89.68L277.739 90.32L279.519 90.62L280.979 90.94L282.019 91.14L282.639 91.56L282.959 92.2V92.82C282.959 93.34 282.859 93.86 282.439 94.18C282.019 94.5 281.399 94.7 280.339 94.7C279.299 94.7 278.579 94.5 278.039 94.18C277.519 93.86 277.219 93.24 276.999 92.5H275.119Z" fill="#95CDE9"/>
<path fill-rule="evenodd" clip-rule="evenodd" d="M294.88 5.34C295.5 5.34 295.92 5.02 295.92 4.5C295.92 3.98 295.52 3.76 294.88 3.76H293.72V5.22H294.88V5.34ZM292.78 2.94H294.88C296.02 2.94 296.96 3.44 296.96 4.5C296.96 5.22 296.44 5.74 295.72 5.96L297.08 7.84H295.82L294.78 6.28H293.72V7.94H292.68V2.82L292.78 2.92V2.94ZM299.06 5.44C299.155 4.81441 299.114 4.1757 298.94 3.56745C298.765 2.9592 298.462 2.39571 298.05 1.91542C297.638 1.43514 297.127 1.04935 296.552 0.784374C295.978 0.5194 295.353 0.381474 294.72 0.380005C294.087 0.381474 293.462 0.5194 292.888 0.784374C292.313 1.04935 291.803 1.43514 291.391 1.91542C290.979 2.39571 290.675 2.9592 290.501 3.56745C290.326 4.1757 290.285 4.81441 290.38 5.44C290.38 7.94 292.16 9.84 294.58 9.84C297.08 9.84 298.96 7.84 298.96 5.44H299.06ZM289.66 5.44C289.66 2.84 291.96 0.520005 294.66 0.520005C297.38 0.520005 299.58 2.72 299.58 5.44C299.58 6.75234 299.065 8.01214 298.144 8.94755C297.224 9.88297 295.972 10.419 294.66 10.44C293.364 10.4295 292.124 9.90994 291.207 8.99327C290.29 8.0766 289.771 6.83633 289.76 5.54L289.66 5.44Z" fill="black"/>
<path fill-rule="evenodd" clip-rule="evenodd" d="M182.5 32.4L168.92 18.8C166.916 20.4253 165.309 22.4858 164.221 24.825C163.133 27.1642 162.592 29.7205 162.64 32.3V32.4C162.64 37.84 165.04 42.86 168.92 46L182.52 32.4H182.5Z" fill="#34A0D1"/>
<path fill-rule="evenodd" clip-rule="evenodd" d="M168.8 18.8L157.32 7.2C153.484 10.187 150.379 14.0089 148.241 18.3753C146.103 22.7418 144.988 27.5381 144.98 32.4V32.6C144.98 42.86 149.58 51.84 157 57.7L168.92 46C166.933 44.3383 165.34 42.2567 164.254 39.905C163.168 37.5534 162.617 34.9902 162.64 32.4C162.584 29.8221 163.121 27.2656 164.21 24.9283C165.299 22.5909 166.91 20.5352 168.92 18.92" fill="#95CDE9"/>
<path fill-rule="evenodd" clip-rule="evenodd" d="M118.54 64.92C132.34 64.92 140.28 58.96 146.24 50.8L133.18 41.6C129.4 46 125.64 49.12 119.18 49.12C110.48 49.12 104.32 41.82 104.32 32.4C104.32 23.32 110.48 15.88 119.16 15.88C125.12 15.88 129.3 18.72 132.76 23.2L145.82 13.06C139.8 4.44 129.76 -0.519999 119.26 5.40167e-07C100.34 5.40167e-07 86.3402 14.2 86.3402 32.4V33.24C86.3584 37.439 87.2075 41.593 88.8386 45.4623C90.4696 49.3316 92.8504 52.8399 95.8437 55.7848C98.837 58.7297 102.384 61.0531 106.279 62.621C110.174 64.1888 114.341 64.9702 118.54 64.92ZM168.92 46C171.625 48.1462 174.988 49.2909 178.44 49.24C187.84 49.24 194.12 41.6 194.12 32.62V32.42C194.12 23.42 187.72 15.68 178.32 15.68C174.911 15.5638 171.575 16.6784 168.92 18.82L157.12 7.22C163.466 2.22049 171.389 -0.347204 179.46 -0.0199995C197.12 -0.0199995 211.66 14.52 211.66 32.18V32.4C211.66 50.4 197.34 64.8 178.2 64.8C170.558 64.9044 163.108 62.4 157.08 57.7L168.92 46ZM46.8202 63.76H29.6002V1.16H56.3602C72.0402 1.16 82.2802 9.3 82.2802 23.1V23.3C82.2802 37.94 71.0002 45.68 55.4202 45.68H46.8402V63.76H46.8202ZM18.0802 63.76H0.740234V1.16H18.0802V63.76ZM252.02 25.4L266.96 1.26H285.16V63.66H268V27.8L251.9 52.26H251.58L235.7 28.02V63.66H218.76V1.26H237.06L251.9 25.4H252H252.02ZM54.8802 15.8H46.7202V32.3H55.0802C61.2602 32.3 65.0202 29.16 65.0202 24.14V24.04C65.0202 18.82 61.2602 15.88 54.9802 15.88H54.8802V15.8Z" fill="black"/>
</g>
<defs>
<clipPath id="clip0_3703_9987">
<rect width="300" height="98" fill="white"/>
</clipPath>
</defs>
</svg>
