<svg fill="none" height="121" viewBox="0 0 172 121" width="172" xmlns="http://www.w3.org/2000/svg" xmlns:xlink="http://www.w3.org/1999/xlink"><clipPath id="a"><path d="m0 .918457h172v120h-172z"/></clipPath><g clip-path="url(#a)"><path d="m151.666 66.8468h8.265v-1.0934h-6.999v-4.5507h5.506v-1.0934h-5.506v-4.3043h6.86v-1.0934h-8.12v12.1352zm-12.787 0h1.266l-.057-9.961h.057l7.162 9.961h1.21v-12.1289h-1.267l.057 10.0116h-.057l-7.162-10.0116h-1.209zm-12.807-6.0676c0-2.9264 1.833-5.1132 4.561-5.1132 2.709 0 4.561 2.1868 4.561 5.1132s-1.852 5.1133-4.561 5.1133c-2.721 0-4.561-2.1869-4.561-5.1133zm-1.316 0c0 3.5964 2.368 6.2573 5.877 6.2573 3.439 0 5.877-2.6609 5.877-6.2573 0-3.5963-2.438-6.2572-5.877-6.2572-3.509 0-5.877 2.6609-5.877 6.2572z" fill="#000"/><path d="m163.143 55.0278v.4172h1.543v3.7923h.504v-3.7923h1.531v-.4172zm8.176 0-1.632 3.5648h-.025l-1.644-3.5648h-.68v4.2095h.51l-.025-3.5142h.025l1.619 3.5142h.422l1.606-3.5142h.038l-.025 3.5142h.498v-4.2095z" fill="#000"/><path d="m0 60.9185c0 33.1381 26.4945 59.9995 59.1748 59.9995s59.1752-26.8614 59.1752-59.9995-26.4949-60.000043-59.1752-60.000043-59.1748 26.861943-59.1748 60.000043z" fill="#d35f0b"/><g fill="#fff"><path d="m98.8849 64.5718c-.7118 0-1.115-.5941-1.115-1.3715v-5.8591h2.0662l-1.0646-2.8062h-1.0016v-4.1273h-3.2504v4.2853 2.8695 6.51c0 2.2248 1.2158 3.4131 3.4772 3.4131 1.3417 0 2.1983-.3603 2.6833-.7901l-.888-2.3386c-.2268.1201-.5481.2149-.9071.2149z"/><path d="m71.9563 64.4644c-2.0157 0-3.137-1.6812-3.137-3.6469 0-1.9467 1.1213-3.6279 3.137-3.6279 2.0158 0 3.1685 1.6812 3.1685 3.6279-.0126 1.9657-1.1527 3.6469-3.1685 3.6469zm0-10.1885c-4.063 0-6.5071 3.0022-6.5071 6.548 0 3.5647 2.4567 6.5606 6.5071 6.5606 4.0819 0 6.5386-3.0022 6.5386-6.5606-.0189-3.5458-2.4567-6.548-6.5386-6.548z"/><path d="m60.3779 57.1959c1.1212 0 2.0157.4614 2.6015 1.3526l.0819-.0822c.2457-1.0239.6678-1.9783 1.2221-2.8189-.8945-.7774-2.211-1.3715-4.063-1.3715-3.8236 0-6.5638 2.7494-6.5386 6.5985.0252 3.8176 3.0803 6.6428 6.8473 6.5038 1.6881-.0632 2.9102-.6321 3.7543-1.3779-.5543-.8406-.9764-1.795-1.2221-2.7999l-.0819-.0822c-.5858.8216-1.4803 1.3526-2.6015 1.3526-1.9654 0-3.3323-1.4664-3.3323-3.6469 0-2.1806 1.3669-3.628 3.3323-3.628z"/><path d="m83.6215 56.5319c0-1.1061-.8693-2.0036-1.9528-2.0036h-1.2976v10.0179 2.5156h3.2504v-7.9764c.5291-.8091 1.9527-1.4221 3.0173-1.4221.3527 0 .6614.0505.8882.1011v-3.2108c-1.537-.0063-3.0488.8722-3.9055 1.9783z"/><path d="m92.4027 54.5283h-3.2504v12.5335h3.2504z"/><path d="m110.212 54.5283-3.244 8.5642-3.163-8.5642h-3.451l5.039 12.742-1.556 4.0767h1.543c1.04 0 1.978-.6383 2.369-1.6243l5.953-15.1944z"/><path d="m92.4027 50.4077h-3.2504v2.8h3.2504z"/></g></g></svg>