<?xml version="1.0" encoding="utf-8"?>
<!-- Generator: Adobe Illustrator 26.3.1, SVG Export Plug-In . SVG Version: 6.00 Build 0)  -->
<svg version="1.1" id="Layer_1" xmlns="http://www.w3.org/2000/svg" xmlns:xlink="http://www.w3.org/1999/xlink" x="0px" y="0px"
	 viewBox="0 0 311.6 56.2" style="enable-background:new 0 0 311.6 56.2;" xml:space="preserve">
<style type="text/css">
	.st0{fill:#FFFFFF;}
</style>
<g>
	<g>
		<g>
			<path class="st0" d="M0,0h12.9v56.2H0V0z"/>
			<path class="st0" d="M24.4,0h11.7l21.1,33.3V0h12.9v56.2H58.3l-21-33.3v33.3H24.4V0z"/>
			<path class="st0" d="M93,11.1H77.8V0h43.3v11.1h-15.2v45.1H93V11.1z"/>
			<path class="st0" d="M128.1,41V0h36.3v11.1H141v11.2H162v11.1H141v5.3c0,4.6,1.2,6.4,5.8,6.4h18.7v11.1h-23.4
				C132.8,56.2,128.1,50.3,128.1,41z"/>
			<path class="st0" d="M174.8,41V0h12.9v38.7c0,4.6,1.2,6.4,5.8,6.4h15.2v11.1h-19.9C179.5,56.2,174.8,50.3,174.8,41z"/>
			<path class="st0" d="M215.6,41V0h36.3v11.1h-23.4v11.2h21.1v11.1h-21.1v5.3c0,4.6,1.2,6.4,5.8,6.4H253v11.1h-23.4
				C220.3,56.2,215.6,50.3,215.6,41z"/>
		</g>
	</g>
	<path class="st0" d="M260.4,0v0.6l16.2,24l6.8-11.3l-9-13.3C274.4,0,260.4,0,260.4,0z M294.5,30.3L287.2,41l10.4,15.2h14.1v-0.6
		L294.5,30.3z"/>
	<path class="st0" d="M307.7-0.7l-35.4,56.9h1l38.8-56.9H307.7z M301.3-0.7l-34.5,56.9h1l38-56.9C305.8-0.7,301.3-0.7,301.3-0.7z
		 M294.9-0.7l-33.4,56.9h1l37-56.9C299.4-0.7,294.9-0.7,294.9-0.7z"/>
</g>
</svg>
