<svg id="Group_3429" data-name="Group 3429" xmlns="http://www.w3.org/2000/svg" xmlns:xlink="http://www.w3.org/1999/xlink" width="64" height="33.372" viewBox="0 0 64 33.372">
  <defs>
    <clipPath id="clip-path">
      <rect id="Rectangle_4" data-name="Rectangle 4" width="64" height="33.372" fill="#293455"/>
    </clipPath>
  </defs>
  <path id="Path_1" data-name="Path 1" d="M190.4,57.034l5.187,0V36.248l-5.187-1.8Z" transform="translate(-131.591 -23.808)" fill="#293455"/>
  <path id="Path_2" data-name="Path 2" d="M190.4,9.707l5.187,1.8V6.77L190.4,4.97Z" transform="translate(-131.591 -3.435)" fill="#293455"/>
  <g id="Group_3" data-name="Group 3">
    <g id="Group_2" data-name="Group 2" clip-path="url(#clip-path)">
      <path id="Path_3" data-name="Path 3" d="M13.089,25.92c-.139,0-.278-.006-.415-.006a12.674,12.674,0,0,0-.416,25.341q.208.007.416.007a12.674,12.674,0,0,0,.415-25.341M18.4,43.489a7.527,7.527,0,0,1-5.713,2.645,7.561,7.561,0,0,1-7.472-6.4,7.556,7.556,0,0,1,7.44-8.694,7.559,7.559,0,0,1,7.473,6.4,7.522,7.522,0,0,1-1.728,6.05" transform="translate(0 -17.91)" fill="#293455"/>
      <path id="Path_4" data-name="Path 4" d="M108.129,8.029q-.176-.005-.352,0a12.683,12.683,0,0,0-6.111,1.57l-1.375.759V1.8L95.1,0V19.082l0,0,0,1.6v.03A12.654,12.654,0,1,0,108.129,8.029M113.506,25.6a7.526,7.526,0,0,1-5.713,2.644,7.559,7.559,0,0,1-7.473-6.4,7.556,7.556,0,0,1,7.44-8.694,7.559,7.559,0,0,1,7.473,6.4,7.521,7.521,0,0,1-1.728,6.049" transform="translate(-65.728)" fill="#293455"/>
    </g>
  </g>
</svg>
