<svg width="231" height="26" viewBox="0 0 231 26" fill="none" xmlns="http://www.w3.org/2000/svg">
<g id="Logo">
<path id="Vector" d="M0 25.4582V0.541748H11.1864C15.5387 0.541748 18.658 3.39484 18.658 7.87111C18.658 12.3495 15.505 15.3825 11.1864 15.3825H4.48927V25.4561H0V25.4582ZM4.42176 11.1948H10.8787C12.8662 11.1948 14.135 9.93145 14.135 8.01753C14.135 6.03249 12.8662 4.73145 10.8787 4.73145H4.42176V11.1948Z" fill="#1C1C1C"/>
<path id="Vector_2" d="M18.624 16.4304C18.624 10.8707 22.462 6.86084 27.5688 6.86084C32.6418 6.86084 36.5156 10.8686 36.5156 16.4304C36.5156 21.9902 32.6418 26 27.5688 26C22.464 26 18.624 21.9902 18.624 16.4304ZM32.1296 16.4304C32.1296 13.1444 30.2096 10.9418 27.5708 10.9418C24.8983 10.9418 23.012 13.1444 23.012 16.4304C23.012 19.7165 24.8963 21.9191 27.5708 21.9191C30.2096 21.9191 32.1296 19.7165 32.1296 16.4304Z" fill="#1C1C1C"/>
<path id="Vector_3" d="M37.7246 19.6077H41.6659C42.1464 21.5928 43.8261 22.4232 45.6409 22.4232C47.3207 22.4232 48.6907 21.6639 48.6907 20.3294C48.6907 18.9928 47.3882 18.633 45.6052 18.3067L43.7884 17.9825C40.3614 17.3696 38.2349 15.8531 38.2349 12.6026C38.2349 9.06341 41.1834 6.86084 45.2617 6.86084C49.4094 6.86084 52.1177 9.13662 52.6994 12.7469H48.7919C48.3114 11.0861 46.9077 10.3268 45.2954 10.3268C43.5482 10.3268 42.4164 11.1217 42.4164 12.2407C42.4164 13.3954 43.3079 13.7572 45.1584 14.0814L46.9752 14.4056C50.2989 14.983 52.8364 16.4283 52.8364 19.9299C52.8364 23.7577 49.8204 25.9958 45.6052 25.9958C41.0484 26 38.1356 23.5067 37.7246 19.6077Z" fill="#1C1C1C"/>
<path id="Vector_4" d="M54.9551 2.77777C54.9551 1.26546 56.1186 0.0418091 57.5521 0.0418091H57.6355C59.0711 0.0418091 60.2326 1.26756 60.2326 2.77777C60.2326 4.29008 59.0691 5.51373 57.6355 5.51373H57.5521C56.1186 5.51373 54.9551 4.28799 54.9551 2.77777ZM55.4534 25.4582V7.40464H59.7382V25.4582H55.4534Z" fill="#1C1C1C"/>
<path id="Vector_5" d="M67.8016 25.4499C66.0186 25.4499 64.9225 24.2221 64.9225 22.237V10.833H61.7695V7.54692C65.1628 7.40259 65.7446 5.92166 65.7803 2.02271H69.0028V7.40259H73.1168V10.833H69.1378V20.7561C69.1378 21.5154 69.4118 21.8752 70.2338 21.8752H73.1128V25.4499H67.8016Z" fill="#1C1C1C"/>
<path id="Vector_6" d="M75.0586 2.77777C75.0586 1.26546 76.2221 0.0418091 77.6557 0.0418091H77.7391C79.1746 0.0418091 80.3361 1.26756 80.3361 2.77777C80.3361 4.29008 79.1726 5.51373 77.7391 5.51373H77.6557C76.2201 5.51373 75.0586 4.28799 75.0586 2.77777ZM75.555 25.4582V7.40464H79.8397V25.4582H75.555Z" fill="#1C1C1C"/>
<path id="Vector_7" d="M82.4189 16.4304C82.4189 10.8707 86.257 6.86084 91.3657 6.86084C96.4387 6.86084 100.311 10.8686 100.311 16.4304C100.311 21.9902 96.4367 26 91.3657 26C86.257 26 82.4189 21.9902 82.4189 16.4304ZM95.9225 16.4304C95.9225 13.1444 94.0025 10.9418 91.3637 10.9418C88.6892 10.9418 86.805 13.1444 86.805 16.4304C86.805 19.7165 88.6892 21.9191 91.3637 21.9191C94.0045 21.9191 95.9225 19.7165 95.9225 16.4304Z" fill="#1C1C1C"/>
<path id="Vector_8" d="M118.176 13.3619V25.4582H113.891V14.7696C113.891 12.7469 113 10.9773 110.669 10.9773C108.441 10.9773 107.172 12.7469 107.172 14.7696V25.4582H102.888V7.40467H107.172V9.53403C108.268 8.01754 110.155 6.86292 112.313 6.86292C115.879 6.86082 118.176 9.35205 118.176 13.3619Z" fill="#1C1C1C"/>
<path id="Vector_9" d="M125.501 13.0356C125.501 5.48865 130.848 0 137.668 0C143.633 0 148.293 4.00772 149.357 9.96701H144.661C143.736 6.64537 141.199 4.29847 137.704 4.29847C133.282 4.29847 130.232 8.01754 130.232 13C130.232 17.9113 133.248 21.666 137.704 21.666C140.994 21.666 143.428 19.6433 144.457 16.6458H137.704V12.6737H149.46V25.4561H145.759V21.6639C144.012 24.3726 141.27 25.9979 137.533 25.9979C130.814 26 125.501 20.618 125.501 13.0356Z" fill="#1C1C1C"/>
<path id="Vector_10" d="M163.726 7.07837V11.9165C163.246 11.8433 162.938 11.8077 162.287 11.8077C159.545 11.8077 157.384 13.3598 157.384 17.1165V25.4583H153.1V7.40468H157.351V10.8706C158.619 8.30621 160.915 7.07837 163.452 7.07837H163.726Z" fill="#1C1C1C"/>
<path id="Vector_11" d="M168.481 17.3696C168.688 20.4026 170.675 22.1366 173.074 22.1366C175.302 22.1366 176.501 21.0887 177.085 19.3191H181.437C180.615 23.1469 177.325 26 173.074 26C167.796 26 164.3 22.2077 164.3 16.3948C164.3 10.6887 168.001 6.86292 173.108 6.86292C178.455 6.86292 181.54 11.0505 181.54 16.5768V17.3717H168.481V17.3696ZM168.551 14.3722H177.359C177.015 11.9521 175.198 10.5443 173.074 10.5443C170.812 10.5443 168.962 11.9521 168.551 14.3722Z" fill="#1C1C1C"/>
<path id="Vector_12" d="M187.205 17.3696C187.411 20.4026 189.399 22.1366 191.797 22.1366C194.025 22.1366 195.224 21.0887 195.808 19.3191H200.161C199.339 23.1469 196.048 26 191.797 26C186.52 26 183.023 22.2077 183.023 16.3948C183.023 10.6887 186.724 6.86292 191.831 6.86292C197.178 6.86292 200.264 11.0505 200.264 16.5768V17.3717H187.205V17.3696ZM187.272 14.3722H196.08C195.737 11.9521 193.92 10.5443 191.795 10.5443C189.536 10.5443 187.683 11.9521 187.272 14.3722Z" fill="#1C1C1C"/>
<path id="Vector_13" d="M218.018 13.3619V25.4582H213.733V14.7696C213.733 12.7469 212.842 10.9773 210.511 10.9773C208.283 10.9773 207.014 12.7469 207.014 14.7696V25.4582H202.729V7.40467H207.014V9.53403C208.11 8.01754 209.997 6.86292 212.155 6.86292C215.721 6.86082 218.018 9.35205 218.018 13.3619Z" fill="#1C1C1C"/>
<path id="Vector_14" d="M226.074 10.4314C228.794 10.4314 231 8.10795 231 5.24185C231 2.37574 228.794 0.0523071 226.074 0.0523071C223.353 0.0523071 221.147 2.37574 221.147 5.24185C221.147 8.10795 223.353 10.4314 226.074 10.4314Z" fill="#00B870"/>
</g>
</svg>
