<svg xmlns="http://www.w3.org/2000/svg" viewBox="0 0 80.098 22.53">
  <defs>
    <style>
      .cls-1 {
        fill: #2e2459;
      }

      .cls-2 {
        fill: #8500ff;
      }
    </style>
  </defs>
  <g id="::_logo" data-name=":: logo" transform="translate(-238 -25)">
    <path id="Path_1" data-name="Path 1" class="cls-1" d="M100.519,0h-16.7A2.32,2.32,0,0,0,81.5,2.318V22.053a.466.466,0,0,0,.477.477h5.385a.466.466,0,0,0,.477-.477v-5.76a.147.147,0,0,1,.136-.136h12.543V10.532H87.976a.147.147,0,0,1-.136-.136V6.476a.147.147,0,0,1,.136-.136h12.543Z" transform="translate(184.279 25)"/>
    <path id="Path_2" data-name="Path 2" class="cls-1" d="M194.842,0h-5.385a.466.466,0,0,0-.477.477V11.623a.129.129,0,0,1-.239.068l-6.851-10.6A2.508,2.508,0,0,0,179.81,0H174.8V22.53h5.863a.466.466,0,0,0,.477-.477V11.623a.129.129,0,0,1,.239-.068l6.851,9.919a2.551,2.551,0,0,0,2.045,1.057h4.567a.466.466,0,0,0,.477-.477V.477A.466.466,0,0,0,194.842,0Z" transform="translate(122.779 25)"/>
    <path id="Path_3" data-name="Path 3" class="cls-2" d="M13.975,0H2.318A2.342,2.342,0,0,0,0,2.318v8.93H0a3.186,3.186,0,0,0,3.17,3.17,3.186,3.186,0,0,0,3.17-3.17h0V6.817a.466.466,0,0,1,.477-.477h7.192a5,5,0,0,1,5.01,5.01,4.889,4.889,0,0,1-4.908,4.806H.477A.466.466,0,0,0,0,16.633v5.385a.466.466,0,0,0,.477.477l13.634-.034A11.231,11.231,0,1,0,13.975,0Z" transform="translate(238 25)"/>
    <rect id="Rectangle_1" data-name="Rectangle 1" class="cls-1" width="6.34" height="22.53" transform="translate(288.002 25)"/>
  </g>
</svg>
