<svg xmlns="http://www.w3.org/2000/svg" width="76" height="76" fill="none" viewBox="0 0 76 76"><g clip-path="url(#a)"><path fill="#C8102E" d="M6.08 76h63.84A6.08 6.08 0 0 0 76 69.92V6.08A6.08 6.08 0 0 0 69.92 0H6.08A6.08 6.08 0 0 0 0 6.08v63.84A6.08 6.08 0 0 0 6.08 76"/><path fill="#fff" d="M26.616 48.299h-3.08a.58.58 0 0 0-.534.357l-3.133 7.413-1.18 2.784a.58.58 0 0 1-1.07 0l-1.147-2.768-3.079-7.422a.59.59 0 0 0-.535-.364H9.694a.587.587 0 0 0-.582.59v14.78c0 .326.264.59.582.59h1.559a.587.587 0 0 0 .581-.59V52.161h.047l1.636 3.924 3.273 7.817a.58.58 0 0 0 .535.357H19c.233 0 .442-.14.535-.357l3.257-7.825 1.629-3.908h.046v11.508c0 .326.264.59.582.59h1.559a.587.587 0 0 0 .581-.59V48.896a.587.587 0 0 0-.581-.59m19.752-.007h-1.908a.587.587 0 0 0-.581.59v5.466c0 .326-.264.59-.582.59h-9.244a.59.59 0 0 1-.582-.59v-5.467a.587.587 0 0 0-.581-.59h-1.908a.58.58 0 0 0-.582.59V63.67c0 .326.264.59.582.59h1.908a.59.59 0 0 0 .581-.59v-5.366c0-.326.264-.59.582-.59h9.244c.318 0 .581.264.581.59v5.366c0 .326.264.59.582.59h1.908a.59.59 0 0 0 .581-.59V48.89a.59.59 0 0 0-.581-.59m14.758 9.452c.403.047.721.07 1.372 0a5.6 5.6 0 0 0 1.319-.248 4.53 4.53 0 0 0 2.094-1.427c.605-.76.977-1.768.977-3.017 0-3.908-2.683-4.761-6.398-4.761h-8.864a.59.59 0 0 0-.582.59v14.78c0 .326.264.59.582.59h1.907a.59.59 0 0 0 .582-.59v-5.366c0-.326.256-.59.582-.59h2.42a.8.8 0 0 1 .279.055c.116.046.186.116.232.155l5.747 6.119a.7.7 0 0 0 .232.155.7.7 0 0 0 .24.054c.9 0 1.808 0 2.707.008a.34.34 0 0 0 .31-.202.36.36 0 0 0-.07-.395c-1.884-1.97-3.776-3.94-5.66-5.91m-6.437-2.807a.583.583 0 0 1-.582-.59v-2.877c0-.325.256-.589.582-.589h5.343c2.505 0 3.785.318 3.785 2.078s-1.28 1.978-3.785 1.978z"/></g><defs><clipPath id="a"><path fill="#fff" d="M0 0h76v76H0z"/></clipPath></defs></svg>