<?xml version="1.0" encoding="UTF-8"?> <svg xmlns="http://www.w3.org/2000/svg" width="380" height="195" viewBox="0 0 380 195" fill="none"><path d="M0.119285 104.911L3.45941 100.853C5.55263 102.826 8.27559 103.958 11.1238 104.039C13.44 104.039 14.8318 103.095 14.8318 101.573V101.492C14.8318 100.031 13.947 99.2902 9.66252 98.164C4.49327 96.8146 1.15313 95.3535 1.15313 90.1587V90.0877C1.15313 85.3393 4.89089 82.194 10.0999 82.194C13.5597 82.1407 16.93 83.3172 19.6332 85.5219L16.6509 89.8645C14.7336 88.3375 12.4081 87.439 9.98062 87.2873C7.81351 87.2873 6.68026 88.3019 6.68026 89.5702V89.6311C6.68026 91.3559 7.78369 91.914 12.2173 93.0706C17.4263 94.4607 20.3589 96.3681 20.3589 100.934V101.005C20.3589 106.21 16.472 109.122 10.9349 109.122C6.9085 109.149 3.0143 107.656 0 104.931" fill="#444444"></path><path d="M62.0112 82.539H67.2202L79.2487 98.6612V82.539H84.8255V108.736H80.0141L67.588 92.0763V108.736H62.0112V82.539Z" fill="#444444"></path><path d="M115.483 95.7187V95.6477C115.482 93.8334 115.839 92.0374 116.531 90.3663C117.223 88.6952 118.237 87.1831 119.513 85.9197C120.789 84.6564 122.3 83.6675 123.958 83.0118C125.615 82.356 127.385 82.0469 129.162 82.1026C137.114 82.1026 142.761 88.1294 142.761 95.5767V95.6477C142.762 97.462 142.405 99.258 141.713 100.929C141.021 102.6 140.007 104.112 138.731 105.376C137.455 106.639 135.943 107.628 134.286 108.284C132.629 108.939 130.859 109.249 129.082 109.193C121.129 109.193 115.483 103.166 115.483 95.7187ZM136.856 95.7187V95.6477C136.893 94.5811 136.72 93.5178 136.346 92.521C135.973 91.5242 135.406 90.6144 134.681 89.8457C133.956 89.077 133.086 88.4651 132.124 88.0465C131.162 87.6279 130.128 87.4111 129.082 87.409C128.049 87.4056 127.025 87.6152 126.073 88.0253C125.121 88.4353 124.26 89.0374 123.542 89.7954C122.823 90.5534 122.262 91.4517 121.892 92.4364C121.522 93.4211 121.35 94.472 121.388 95.5259V95.597C121.352 96.6627 121.526 97.7249 121.901 98.7205C122.275 99.7161 122.841 100.625 123.567 101.392C124.292 102.16 125.161 102.771 126.122 103.189C127.083 103.607 128.117 103.823 129.162 103.825C130.196 103.83 131.22 103.622 132.174 103.212C133.127 102.803 133.989 102.201 134.709 101.443C135.428 100.685 135.99 99.7859 136.361 98.8005C136.732 97.8151 136.903 96.7634 136.866 95.7086" fill="#444444"></path><path d="M165.585 82.5388H171.639L176.947 100.274L182.703 82.4576H187.544L193.3 100.274L198.619 82.5388H204.523L195.765 108.919H190.845L185.059 91.7819L179.264 108.919H174.343L165.585 82.5388Z" fill="#444444"></path><path d="M246.802 82.539H252.449V93.9939L262.867 82.539H269.686L259.228 93.649L270.153 108.736H263.374L255.421 97.5857L252.449 100.721V108.736H246.802V82.539Z" fill="#444444"></path><path d="M310.215 82.3461H315.424L326.429 108.726H320.514L318.168 102.821H307.292L304.946 108.696H299.191L310.215 82.3461ZM316.179 97.7682L312.77 89.2759L309.33 97.7479L316.179 97.7682Z" fill="#444444"></path><path d="M359.681 82.5288H370.168C376.292 82.5288 380 86.2322 380 91.5893V91.6604C380 97.7481 375.377 100.873 369.622 100.873H365.337V108.726H359.681V82.5288ZM369.801 95.7188C372.624 95.7188 374.274 93.994 374.274 91.7517V91.6604C374.274 89.0731 372.514 87.6932 369.691 87.6932H365.327V95.7188H369.801Z" fill="#444444"></path><path d="M139.341 0.0101406L149.59 9.20255L141.697 16.3049C161.951 18.4311 180.632 28.4152 193.881 44.1951C207.131 59.975 213.936 80.3455 212.893 101.1C211.85 121.854 203.038 141.407 188.277 155.721C173.515 170.034 153.931 178.015 133.57 178.015C113.209 178.015 93.6255 170.034 78.8639 155.721C64.1023 141.407 55.29 121.854 54.247 101.1C53.204 80.3455 60.0099 59.975 73.2593 44.1951C86.5086 28.4152 105.189 18.4311 125.444 16.3049L133.327 9.20255L123.465 0.344965C99.0347 2.96978 76.5431 15.1296 60.6907 34.2834C44.8383 53.4372 36.8516 78.1028 38.3998 103.126C39.9479 128.149 50.9111 151.593 68.9982 168.56C87.0854 185.526 110.897 194.702 135.457 194.169C160.017 193.636 183.425 183.437 200.79 165.701C218.155 147.966 228.132 124.068 228.637 98.9999C229.143 73.9322 220.137 49.6351 203.501 31.186C186.866 12.7368 163.889 1.56318 139.371 0" fill="#FFA93C"></path></svg> 